<?xml version="1.0" encoding="UTF-8" standalone="no"?>
<!DOCTYPE svg PUBLIC "-//W3C//DTD SVG 1.1//EN"
 "http://www.w3.org/Graphics/SVG/1.1/DTD/svg11.dtd">
<!-- Generated by graphviz version 2.26.3 (20100126.1600)
 -->
<!-- Title: G Pages: 1 -->
<svg width="736pt" height="1163pt"
 viewBox="0.00 0.00 736.00 1163.00" xmlns="http://www.w3.org/2000/svg" xmlns:xlink="http://www.w3.org/1999/xlink">
<g id="graph1" class="graph" transform="scale(1 1) rotate(0) translate(4 1159)">
<title>G</title>
<polygon fill="white" stroke="white" points="-4,5 -4,-1159 733,-1159 733,5 -4,5"/>
<g id="graph2" class="cluster"><title>cluster_Global</title>
<polyline fill="none" stroke="gray" points="20,-98 708,-98 "/>
<path fill="none" stroke="gray" d="M708,-98C714,-98 720,-104 720,-110"/>
<polyline fill="none" stroke="gray" points="720,-110 720,-1135 "/>
<path fill="none" stroke="gray" d="M720,-1135C720,-1141 714,-1147 708,-1147"/>
<polyline fill="none" stroke="gray" points="708,-1147 20,-1147 "/>
<path fill="none" stroke="gray" d="M20,-1147C14,-1147 8,-1141 8,-1135"/>
<polyline fill="none" stroke="gray" points="8,-1135 8,-110 "/>
<path fill="none" stroke="gray" d="M8,-110C8,-104 14,-98 20,-98"/>
<text text-anchor="middle" x="364" y="-1133.1" font-family="Times Roman,serif" font-size="11.00" fill="gray">\</text>
</g>
<g id="graph3" class="cluster"><title>cluster_\Query</title>
<polyline fill="none" stroke="gray" points="28,-106 700,-106 "/>
<path fill="none" stroke="gray" d="M700,-106C706,-106 712,-112 712,-118"/>
<polyline fill="none" stroke="gray" points="712,-118 712,-1106 "/>
<path fill="none" stroke="gray" d="M712,-1106C712,-1112 706,-1118 700,-1118"/>
<polyline fill="none" stroke="gray" points="700,-1118 28,-1118 "/>
<path fill="none" stroke="gray" d="M28,-1118C22,-1118 16,-1112 16,-1106"/>
<polyline fill="none" stroke="gray" points="16,-1106 16,-118 "/>
<path fill="none" stroke="gray" d="M16,-118C16,-112 22,-106 28,-106"/>
<text text-anchor="middle" x="364" y="-1104.1" font-family="Times Roman,serif" font-size="11.00" fill="gray">Query</text>
</g>
<g id="graph4" class="cluster"><title>cluster_\Query\Driver</title>
<polyline fill="none" stroke="gray" points="36,-214 680,-214 "/>
<path fill="none" stroke="gray" d="M680,-214C686,-214 692,-220 692,-226"/>
<polyline fill="none" stroke="gray" points="692,-226 692,-979 "/>
<path fill="none" stroke="gray" d="M692,-979C692,-985 686,-991 680,-991"/>
<polyline fill="none" stroke="gray" points="680,-991 36,-991 "/>
<path fill="none" stroke="gray" d="M36,-991C30,-991 24,-985 24,-979"/>
<polyline fill="none" stroke="gray" points="24,-979 24,-226 "/>
<path fill="none" stroke="gray" d="M24,-226C24,-220 30,-214 36,-214"/>
<text text-anchor="middle" x="358" y="-977.1" font-family="Times Roman,serif" font-size="11.00" fill="gray">Driver</text>
</g>
<g id="graph5" class="cluster"><title>cluster_\Query\Driver\SQL</title>
<polyline fill="none" stroke="gray" points="44,-727 672,-727 "/>
<path fill="none" stroke="gray" d="M672,-727C678,-727 684,-733 684,-739"/>
<polyline fill="none" stroke="gray" points="684,-739 684,-950 "/>
<path fill="none" stroke="gray" d="M684,-950C684,-956 678,-962 672,-962"/>
<polyline fill="none" stroke="gray" points="672,-962 44,-962 "/>
<path fill="none" stroke="gray" d="M44,-962C38,-962 32,-956 32,-950"/>
<polyline fill="none" stroke="gray" points="32,-950 32,-739 "/>
<path fill="none" stroke="gray" d="M32,-739C32,-733 38,-727 44,-727"/>
<text text-anchor="middle" x="358" y="-948.1" font-family="Times Roman,serif" font-size="11.00" fill="gray">SQL</text>
</g>
<g id="graph6" class="cluster"><title>cluster_\Query\Driver\Util</title>
<polyline fill="none" stroke="gray" points="310,-484 670,-484 "/>
<path fill="none" stroke="gray" d="M670,-484C676,-484 682,-490 682,-496"/>
<polyline fill="none" stroke="gray" points="682,-496 682,-707 "/>
<path fill="none" stroke="gray" d="M682,-707C682,-713 676,-719 670,-719"/>
<polyline fill="none" stroke="gray" points="670,-719 310,-719 "/>
<path fill="none" stroke="gray" d="M310,-719C304,-719 298,-713 298,-707"/>
<polyline fill="none" stroke="gray" points="298,-707 298,-496 "/>
<path fill="none" stroke="gray" d="M298,-496C298,-490 304,-484 310,-484"/>
<text text-anchor="middle" x="490" y="-705.1" font-family="Times Roman,serif" font-size="11.00" fill="gray">Util</text>
</g>
<!-- \\Query\\Driver\\SQL\\Abstract_SQL -->
<g id="node5" class="node"><title>\\Query\\Driver\\SQL\\Abstract_SQL</title>
<polygon fill="none" stroke="black" points="397,-852 305,-852 305,-816 397,-816 397,-852"/>
<text text-anchor="start" x="321.5" y="-839.433" font-family="Times Roman,serif" font-size="11.00">«abstract»</text>
<text text-anchor="start" x="313.5" y="-826.233" font-family="Times Roman,serif" font-size="11.00">Abstract_SQL</text>
</g>
<!-- \\Query\\Driver\\SQL\\SQL_Interface -->
<g id="node10" class="node"><title>\\Query\\Driver\\SQL\\SQL_Interface</title>
<polygon fill="none" stroke="black" points="133,-852 41,-852 41,-816 133,-816 133,-852"/>
<text text-anchor="middle" x="87" y="-830.6" font-family="Times Roman,serif" font-size="11.00">SQL_Interface</text>
</g>
<!-- \\Query\\Driver\\SQL\\Abstract_SQL&#45;&gt;\\Query\\Driver\\SQL\\SQL_Interface -->
<g id="edge7" class="edge"><title>\\Query\\Driver\\SQL\\Abstract_SQL&#45;&gt;\\Query\\Driver\\SQL\\SQL_Interface</title>
<path fill="none" stroke="black" stroke-dasharray="1,5" d="M304.713,-834C259.937,-834 191.981,-834 143.92,-834"/>
<polygon fill="none" stroke="black" points="143.678,-830.5 133.678,-834 143.678,-837.5 143.678,-830.5"/>
</g>
<!-- \\Query\\Driver\\SQL\\PgSQL_SQL -->
<g id="node6" class="node"><title>\\Query\\Driver\\SQL\\PgSQL_SQL</title>
<polygon fill="none" stroke="black" points="673,-933 593,-933 593,-897 673,-897 673,-933"/>
<text text-anchor="middle" x="633" y="-911.6" font-family="Times Roman,serif" font-size="11.00">PgSQL_SQL</text>
</g>
<!-- \\Query\\Driver\\SQL\\PgSQL_SQL&#45;&gt;\\Query\\Driver\\SQL\\Abstract_SQL -->
<g id="edge27" class="edge"><title>\\Query\\Driver\\SQL\\PgSQL_SQL&#45;&gt;\\Query\\Driver\\SQL\\Abstract_SQL</title>
<path fill="none" stroke="black" d="M592.672,-900.103C582.611,-896.266 571.877,-892.069 562,-888 529.622,-874.66 523.58,-865.933 490,-856 463.215,-848.077 432.632,-842.843 406.985,-839.476"/>
<polygon fill="none" stroke="black" points="407.411,-836.002 397.053,-838.233 406.541,-842.948 407.411,-836.002"/>
</g>
<!-- \\Query\\Driver\\SQL\\MySQL_SQL -->
<g id="node7" class="node"><title>\\Query\\Driver\\SQL\\MySQL_SQL</title>
<polygon fill="none" stroke="black" points="674,-879 592,-879 592,-843 674,-843 674,-879"/>
<text text-anchor="middle" x="633" y="-857.6" font-family="Times Roman,serif" font-size="11.00">MySQL_SQL</text>
</g>
<!-- \\Query\\Driver\\SQL\\MySQL_SQL&#45;&gt;\\Query\\Driver\\SQL\\Abstract_SQL -->
<g id="edge33" class="edge"><title>\\Query\\Driver\\SQL\\MySQL_SQL&#45;&gt;\\Query\\Driver\\SQL\\Abstract_SQL</title>
<path fill="none" stroke="black" d="M591.995,-857.074C543.345,-852.416 461.975,-844.625 407.412,-839.401"/>
<polygon fill="none" stroke="black" points="407.501,-835.894 397.213,-838.425 406.833,-842.862 407.501,-835.894"/>
</g>
<!-- \\Query\\Driver\\SQL\\Firebird_SQL -->
<g id="node8" class="node"><title>\\Query\\Driver\\SQL\\Firebird_SQL</title>
<polygon fill="none" stroke="black" points="675,-825 591,-825 591,-789 675,-789 675,-825"/>
<text text-anchor="middle" x="633" y="-803.6" font-family="Times Roman,serif" font-size="11.00">Firebird_SQL</text>
</g>
<!-- \\Query\\Driver\\SQL\\Firebird_SQL&#45;&gt;\\Query\\Driver\\SQL\\Abstract_SQL -->
<g id="edge35" class="edge"><title>\\Query\\Driver\\SQL\\Firebird_SQL&#45;&gt;\\Query\\Driver\\SQL\\Abstract_SQL</title>
<path fill="none" stroke="black" d="M590.476,-811.071C541.619,-815.749 461.253,-823.444 407.253,-828.614"/>
<polygon fill="none" stroke="black" points="406.777,-825.144 397.156,-829.581 407.444,-832.112 406.777,-825.144"/>
</g>
<!-- \\Query\\Driver\\SQL\\SQLite_SQL -->
<g id="node9" class="node"><title>\\Query\\Driver\\SQL\\SQLite_SQL</title>
<polygon fill="none" stroke="black" points="673,-771 593,-771 593,-735 673,-735 673,-771"/>
<text text-anchor="middle" x="633" y="-749.6" font-family="Times Roman,serif" font-size="11.00">SQLite_SQL</text>
</g>
<!-- \\Query\\Driver\\SQL\\SQLite_SQL&#45;&gt;\\Query\\Driver\\SQL\\Abstract_SQL -->
<g id="edge39" class="edge"><title>\\Query\\Driver\\SQL\\SQLite_SQL&#45;&gt;\\Query\\Driver\\SQL\\Abstract_SQL</title>
<path fill="none" stroke="black" d="M592.896,-764.519C544.224,-778.499 461.87,-802.154 406.969,-817.924"/>
<polygon fill="none" stroke="black" points="405.696,-814.648 397.051,-820.772 407.629,-821.376 405.696,-814.648"/>
</g>
<!-- \\Query\\Driver\\Util\\Firebird_Util -->
<g id="node12" class="node"><title>\\Query\\Driver\\Util\\Firebird_Util</title>
<polygon fill="none" stroke="black" points="674,-690 592,-690 592,-654 674,-654 674,-690"/>
<text text-anchor="middle" x="633" y="-668.6" font-family="Times Roman,serif" font-size="11.00">Firebird_Util</text>
</g>
<!-- \\Query\\Driver\\Util\\Abstract_Util -->
<g id="node14" class="node"><title>\\Query\\Driver\\Util\\Abstract_Util</title>
<polygon fill="none" stroke="black" points="395,-609 307,-609 307,-573 395,-573 395,-609"/>
<text text-anchor="start" x="321.5" y="-596.433" font-family="Times Roman,serif" font-size="11.00">«abstract»</text>
<text text-anchor="start" x="315" y="-583.233" font-family="Times Roman,serif" font-size="11.00">Abstract_Util</text>
</g>
<!-- \\Query\\Driver\\Util\\Firebird_Util&#45;&gt;\\Query\\Driver\\Util\\Abstract_Util -->
<g id="edge11" class="edge"><title>\\Query\\Driver\\Util\\Firebird_Util&#45;&gt;\\Query\\Driver\\Util\\Abstract_Util</title>
<path fill="none" stroke="black" d="M591.995,-660.222C542.813,-646.095 460.189,-622.363 405.63,-606.692"/>
<polygon fill="none" stroke="black" points="406.361,-603.26 395.784,-603.863 404.429,-609.988 406.361,-603.26"/>
</g>
<!-- \\Query\\Driver\\Util\\MySQL_Util -->
<g id="node13" class="node"><title>\\Query\\Driver\\Util\\MySQL_Util</title>
<polygon fill="none" stroke="black" points="672,-636 594,-636 594,-600 672,-600 672,-636"/>
<text text-anchor="middle" x="633" y="-614.6" font-family="Times Roman,serif" font-size="11.00">MySQL_Util</text>
</g>
<!-- \\Query\\Driver\\Util\\MySQL_Util&#45;&gt;\\Query\\Driver\\Util\\Abstract_Util -->
<g id="edge15" class="edge"><title>\\Query\\Driver\\Util\\MySQL_Util&#45;&gt;\\Query\\Driver\\Util\\Abstract_Util</title>
<path fill="none" stroke="black" d="M593.492,-614.217C544.647,-609.541 461.235,-601.554 406.113,-596.277"/>
<polygon fill="none" stroke="black" points="406.112,-592.761 395.824,-595.292 405.445,-599.729 406.112,-592.761"/>
</g>
<!-- \\Query\\Driver\\Util\\SQLite_Util -->
<g id="node15" class="node"><title>\\Query\\Driver\\Util\\SQLite_Util</title>
<polygon fill="none" stroke="black" points="671,-582 595,-582 595,-546 671,-546 671,-582"/>
<text text-anchor="middle" x="633" y="-560.6" font-family="Times Roman,serif" font-size="11.00">SQLite_Util</text>
</g>
<!-- \\Query\\Driver\\Util\\SQLite_Util&#45;&gt;\\Query\\Driver\\Util\\Abstract_Util -->
<g id="edge23" class="edge"><title>\\Query\\Driver\\Util\\SQLite_Util&#45;&gt;\\Query\\Driver\\Util\\Abstract_Util</title>
<path fill="none" stroke="black" d="M594.38,-567.698C545.53,-572.375 461.108,-580.458 405.656,-585.767"/>
<polygon fill="none" stroke="black" points="405.275,-582.287 395.655,-586.725 405.943,-589.255 405.275,-582.287"/>
</g>
<!-- \\Query\\Driver\\Util\\PgSQL_Util -->
<g id="node16" class="node"><title>\\Query\\Driver\\Util\\PgSQL_Util</title>
<polygon fill="none" stroke="black" points="671,-528 595,-528 595,-492 671,-492 671,-528"/>
<text text-anchor="middle" x="633" y="-506.6" font-family="Times Roman,serif" font-size="11.00">PgSQL_Util</text>
</g>
<!-- \\Query\\Driver\\Util\\PgSQL_Util&#45;&gt;\\Query\\Driver\\Util\\Abstract_Util -->
<g id="edge25" class="edge"><title>\\Query\\Driver\\Util\\PgSQL_Util&#45;&gt;\\Query\\Driver\\Util\\Abstract_Util</title>
<path fill="none" stroke="black" d="M594.896,-524.05C584.206,-528.111 572.608,-532.629 562,-537 529.622,-550.34 523.58,-559.067 490,-569 462.801,-577.045 431.687,-582.318 405.801,-585.678"/>
<polygon fill="none" stroke="black" points="405.284,-582.215 395.79,-586.917 406.144,-589.162 405.284,-582.215"/>
</g>
<!-- \\Query\\Driver\\Firebird_Result -->
<g id="node17" class="node"><title>\\Query\\Driver\\Firebird_Result</title>
<polygon fill="none" stroke="black" points="681,-258 585,-258 585,-222 681,-222 681,-258"/>
<text text-anchor="middle" x="633" y="-236.6" font-family="Times Roman,serif" font-size="11.00">Firebird_Result</text>
</g>
<!-- \\PDOStatement -->
<g id="node32" class="node"><title>\\PDOStatement</title>
<ellipse fill="none" stroke="black" cx="351" cy="-72" rx="85.1942" ry="18"/>
<text text-anchor="middle" x="351" y="-67.4" font-family="Times Roman,serif" font-size="14.00" fill="gray">\PDOStatement</text>
</g>
<!-- \\Query\\Driver\\Firebird_Result&#45;&gt;\\PDOStatement -->
<g id="edge9" class="edge"><title>\\Query\\Driver\\Firebird_Result&#45;&gt;\\PDOStatement</title>
<path fill="none" stroke="black" d="M584.493,-227.148C576.814,-224.496 569.078,-221.444 562,-218 491.696,-183.789 418.612,-127.86 379.606,-96.0744"/>
<polygon fill="none" stroke="black" points="381.763,-93.3164 371.814,-89.6747 377.32,-98.726 381.763,-93.3164"/>
</g>
<!-- \\Query\\Driver\\Firebird -->
<g id="node18" class="node"><title>\\Query\\Driver\\Firebird</title>
<polygon fill="none" stroke="black" points="662,-474 604,-474 604,-438 662,-438 662,-474"/>
<text text-anchor="middle" x="633" y="-452.6" font-family="Times Roman,serif" font-size="11.00">Firebird</text>
</g>
<!-- \\Query\\Driver\\Abstract_Driver -->
<g id="node19" class="node"><title>\\Query\\Driver\\Abstract_Driver</title>
<polygon fill="none" stroke="black" points="403,-366 299,-366 299,-330 403,-330 403,-366"/>
<text text-anchor="start" x="321.5" y="-353.433" font-family="Times Roman,serif" font-size="11.00">«abstract»</text>
<text text-anchor="start" x="307.5" y="-340.233" font-family="Times Roman,serif" font-size="11.00">Abstract_Driver</text>
</g>
<!-- \\Query\\Driver\\Firebird&#45;&gt;\\Query\\Driver\\Abstract_Driver -->
<g id="edge13" class="edge"><title>\\Query\\Driver\\Firebird&#45;&gt;\\Query\\Driver\\Abstract_Driver</title>
<path fill="none" stroke="black" d="M603.975,-444.986C591.112,-440.099 575.797,-434.272 562,-429 509.522,-408.949 449.746,-385.991 407.249,-369.648"/>
<polygon fill="none" stroke="black" points="408.504,-366.381 397.914,-366.058 405.991,-372.915 408.504,-366.381"/>
</g>
<!-- \\Query\\Driver\\Driver_Interface -->
<g id="node23" class="node"><title>\\Query\\Driver\\Driver_Interface</title>
<polygon fill="none" stroke="black" points="139,-366 35,-366 35,-330 139,-330 139,-366"/>
<text text-anchor="middle" x="87" y="-344.6" font-family="Times Roman,serif" font-size="11.00">Driver_Interface</text>
</g>
<!-- \\Query\\Driver\\Abstract_Driver&#45;&gt;\\Query\\Driver\\Driver_Interface -->
<g id="edge19" class="edge"><title>\\Query\\Driver\\Abstract_Driver&#45;&gt;\\Query\\Driver\\Driver_Interface</title>
<path fill="none" stroke="black" stroke-dasharray="1,5" d="M298.842,-348C255.953,-348 195.051,-348 149.547,-348"/>
<polygon fill="none" stroke="black" points="149.501,-344.5 139.501,-348 149.501,-351.5 149.501,-344.5"/>
</g>
<!-- \\PDO -->
<g id="node37" class="node"><title>\\PDO</title>
<ellipse fill="none" stroke="black" cx="87" cy="-72" rx="35.0527" ry="18"/>
<text text-anchor="middle" x="87" y="-67.4" font-family="Times Roman,serif" font-size="14.00" fill="gray">\PDO</text>
</g>
<!-- \\Query\\Driver\\Abstract_Driver&#45;&gt;\\PDO -->
<g id="edge17" class="edge"><title>\\Query\\Driver\\Abstract_Driver&#45;&gt;\\PDO</title>
<path fill="none" stroke="black" d="M298.705,-350.861C270.569,-349.836 236.682,-344.194 212,-326 172.545,-296.916 118.689,-158.959 96.8248,-99.4399"/>
<polygon fill="none" stroke="black" points="100.073,-98.1309 93.3604,-89.934 93.4962,-100.528 100.073,-98.1309"/>
</g>
<!-- \\Query\\Driver\\SQLite -->
<g id="node20" class="node"><title>\\Query\\Driver\\SQLite</title>
<polygon fill="none" stroke="black" points="660,-420 606,-420 606,-384 660,-384 660,-420"/>
<text text-anchor="middle" x="633" y="-398.6" font-family="Times Roman,serif" font-size="11.00">SQLite</text>
</g>
<!-- \\Query\\Driver\\SQLite&#45;&gt;\\Query\\Driver\\Abstract_Driver -->
<g id="edge37" class="edge"><title>\\Query\\Driver\\SQLite&#45;&gt;\\Query\\Driver\\Abstract_Driver</title>
<path fill="none" stroke="black" d="M605.961,-396.822C561.913,-388.388 473.549,-371.467 413.334,-359.936"/>
<polygon fill="none" stroke="black" points="413.66,-356.435 403.18,-357.992 412.344,-363.31 413.66,-356.435"/>
</g>
<!-- \\Query\\Driver\\PgSQL -->
<g id="node21" class="node"><title>\\Query\\Driver\\PgSQL</title>
<polygon fill="none" stroke="black" points="660,-366 606,-366 606,-330 660,-330 660,-366"/>
<text text-anchor="middle" x="633" y="-344.6" font-family="Times Roman,serif" font-size="11.00">PgSQL</text>
</g>
<!-- \\Query\\Driver\\PgSQL&#45;&gt;\\Query\\Driver\\Abstract_Driver -->
<g id="edge41" class="edge"><title>\\Query\\Driver\\PgSQL&#45;&gt;\\Query\\Driver\\Abstract_Driver</title>
<path fill="none" stroke="black" d="M605.961,-348C561.913,-348 473.549,-348 413.334,-348"/>
<polygon fill="none" stroke="black" points="413.18,-344.5 403.18,-348 413.18,-351.5 413.18,-344.5"/>
</g>
<!-- \\Query\\Driver\\MySQL -->
<g id="node22" class="node"><title>\\Query\\Driver\\MySQL</title>
<polygon fill="none" stroke="black" points="660,-312 606,-312 606,-276 660,-276 660,-312"/>
<text text-anchor="middle" x="633" y="-290.6" font-family="Times Roman,serif" font-size="11.00">MySQL</text>
</g>
<!-- \\Query\\Driver\\MySQL&#45;&gt;\\Query\\Driver\\Abstract_Driver -->
<g id="edge43" class="edge"><title>\\Query\\Driver\\MySQL&#45;&gt;\\Query\\Driver\\Abstract_Driver</title>
<path fill="none" stroke="black" d="M605.427,-300.714C576.707,-307.579 530.358,-318.299 490,-326 465.011,-330.769 437.354,-335.298 413.334,-338.993"/>
<polygon fill="none" stroke="black" points="412.64,-335.558 403.281,-340.524 413.694,-342.479 412.64,-335.558"/>
</g>
<!-- \\Query\\Query_Parser -->
<g id="node24" class="node"><title>\\Query\\Query_Parser</title>
<polygon fill="none" stroke="black" points="678,-1035 588,-1035 588,-999 678,-999 678,-1035"/>
<text text-anchor="middle" x="633" y="-1013.6" font-family="Times Roman,serif" font-size="11.00">Query_Parser</text>
</g>
<!-- \\Query\\BadDBDriverException -->
<g id="node25" class="node"><title>\\Query\\BadDBDriverException</title>
<polygon fill="none" stroke="black" points="704,-204 562,-204 562,-168 704,-168 704,-204"/>
<text text-anchor="middle" x="633" y="-182.6" font-family="Times Roman,serif" font-size="11.00">BadDBDriverException</text>
</g>
<!-- \\InvalidArgumentException -->
<g id="node40" class="node"><title>\\InvalidArgumentException</title>
<ellipse fill="none" stroke="black" cx="351" cy="-18" rx="138.86" ry="18"/>
<text text-anchor="middle" x="351" y="-13.4" font-family="Times Roman,serif" font-size="14.00" fill="gray">\InvalidArgumentException</text>
</g>
<!-- \\Query\\BadDBDriverException&#45;&gt;\\InvalidArgumentException -->
<g id="edge21" class="edge"><title>\\Query\\BadDBDriverException&#45;&gt;\\InvalidArgumentException</title>
<path fill="none" stroke="black" d="M575.38,-167.903C570.625,-165.294 566.084,-162.339 562,-159 515.609,-121.066 539.47,-78.8203 490,-45 483.219,-40.3642 475.84,-36.4785 468.135,-33.2262"/>
<polygon fill="none" stroke="black" points="469.183,-29.8796 458.593,-29.5654 466.675,-36.4151 469.183,-29.8796"/>
</g>
<!-- \\Query\\Query_Builder -->
<g id="node26" class="node"><title>\\Query\\Query_Builder</title>
<polygon fill="none" stroke="black" points="680,-1089 586,-1089 586,-1053 680,-1053 680,-1089"/>
<text text-anchor="middle" x="633" y="-1067.6" font-family="Times Roman,serif" font-size="11.00">Query_Builder</text>
</g>
<!-- \\Query\\Abstract_Query_Builder -->
<g id="node28" class="node"><title>\\Query\\Abstract_Query_Builder</title>
<polygon fill="none" stroke="black" points="425,-1089 277,-1089 277,-1053 425,-1053 425,-1089"/>
<text text-anchor="start" x="321.5" y="-1076.43" font-family="Times Roman,serif" font-size="11.00">«abstract»</text>
<text text-anchor="start" x="285.5" y="-1063.23" font-family="Times Roman,serif" font-size="11.00">Abstract_Query_Builder</text>
</g>
<!-- \\Query\\Query_Builder&#45;&gt;\\Query\\Abstract_Query_Builder -->
<g id="edge29" class="edge"><title>\\Query\\Query_Builder&#45;&gt;\\Query\\Abstract_Query_Builder</title>
<path fill="none" stroke="black" d="M585.481,-1071C544.522,-1071 484.408,-1071 435.303,-1071"/>
<polygon fill="none" stroke="black" points="435.002,-1067.5 425.002,-1071 435.002,-1074.5 435.002,-1067.5"/>
</g>
<!-- \\Query\\Query_Builder_Interface -->
<g id="node29" class="node"><title>\\Query\\Query_Builder_Interface</title>
<polygon fill="none" stroke="black" points="425,-1035 277,-1035 277,-999 425,-999 425,-1035"/>
<text text-anchor="middle" x="351" y="-1013.6" font-family="Times Roman,serif" font-size="11.00">Query_Builder_Interface</text>
</g>
<!-- \\Query\\Query_Builder&#45;&gt;\\Query\\Query_Builder_Interface -->
<g id="edge31" class="edge"><title>\\Query\\Query_Builder&#45;&gt;\\Query\\Query_Builder_Interface</title>
<path fill="none" stroke="black" stroke-dasharray="1,5" d="M585.481,-1061.9C544.583,-1054.07 484.588,-1042.58 435.523,-1033.19"/>
<polygon fill="none" stroke="black" points="436.027,-1029.72 425.547,-1031.28 434.71,-1036.59 436.027,-1029.72"/>
</g>
<!-- \\Query\\Connection_Manager -->
<g id="node27" class="node"><title>\\Query\\Connection_Manager</title>
<polygon fill="none" stroke="black" points="699,-150 567,-150 567,-114 699,-114 699,-150"/>
<text text-anchor="middle" x="633" y="-128.6" font-family="Times Roman,serif" font-size="11.00">Connection_Manager</text>
</g>
</g>
</svg>
