<?xml version="1.0" encoding="UTF-8" standalone="no"?>
<!DOCTYPE svg PUBLIC "-//W3C//DTD SVG 1.1//EN"
 "http://www.w3.org/Graphics/SVG/1.1/DTD/svg11.dtd">
<!-- Generated by graphviz version 2.26.3 (20100126.1600)
 -->
<!-- Title: G Pages: 1 -->
<svg width="680pt" height="1105pt"
 viewBox="0.00 0.00 680.00 1105.00" xmlns="http://www.w3.org/2000/svg" xmlns:xlink="http://www.w3.org/1999/xlink">
<g id="graph1" class="graph" transform="scale(1 1) rotate(0) translate(4 1101)">
<title>G</title>
<polygon fill="white" stroke="white" points="-4,5 -4,-1101 677,-1101 677,5 -4,5"/>
<g id="graph2" class="cluster"><title>cluster_Global</title>
<polyline fill="none" stroke="gray" points="242,-152 652,-152 "/>
<path fill="none" stroke="gray" d="M652,-152C658,-152 664,-158 664,-164"/>
<polyline fill="none" stroke="gray" points="664,-164 664,-1077 "/>
<path fill="none" stroke="gray" d="M664,-1077C664,-1083 658,-1089 652,-1089"/>
<polyline fill="none" stroke="gray" points="652,-1089 242,-1089 "/>
<path fill="none" stroke="gray" d="M242,-1089C236,-1089 230,-1083 230,-1077"/>
<polyline fill="none" stroke="gray" points="230,-1077 230,-164 "/>
<path fill="none" stroke="gray" d="M230,-164C230,-158 236,-152 242,-152"/>
<text text-anchor="middle" x="447" y="-1075.1" font-family="Times Roman,serif" font-size="11.00" fill="gray">\</text>
</g>
<!-- \\DB_PDO -->
<g id="node2" class="node"><title>\\DB_PDO</title>
<polygon fill="none" stroke="black" points="325,-493 249,-493 249,-457 325,-457 325,-493"/>
<text text-anchor="start" x="257.5" y="-480.433" font-family="Times Roman,serif" font-size="11.00">«abstract»</text>
<text text-anchor="start" x="264" y="-467.233" font-family="Times Roman,serif" font-size="11.00">DB_PDO</text>
</g>
<!-- \\PDO -->
<g id="node24" class="node"><title>\\PDO</title>
<ellipse fill="none" stroke="black" cx="36" cy="-475" rx="35.0527" ry="18"/>
<text text-anchor="middle" x="36" y="-470.4" font-family="Times Roman,serif" font-size="14.00" fill="gray">\PDO</text>
</g>
<!-- \\DB_PDO&#45;&gt;\\PDO -->
<g id="edge3" class="edge"><title>\\DB_PDO&#45;&gt;\\PDO</title>
<path fill="none" stroke="black" d="M248.879,-475C204.032,-475 129.635,-475 81.7269,-475"/>
<polygon fill="none" stroke="black" points="81.6312,-471.5 71.6312,-475 81.6311,-478.5 81.6312,-471.5"/>
</g>
<!-- \\Firebird_Result -->
<g id="node3" class="node"><title>\\Firebird_Result</title>
<polygon fill="none" stroke="black" points="627,-358 531,-358 531,-322 627,-322 627,-358"/>
<text text-anchor="middle" x="579" y="-336.6" font-family="Times Roman,serif" font-size="11.00">Firebird_Result</text>
</g>
<!-- \\PDOStatement -->
<g id="node26" class="node"><title>\\PDOStatement</title>
<ellipse fill="none" stroke="black" cx="287" cy="-126" rx="85.1942" ry="18"/>
<text text-anchor="middle" x="287" y="-121.4" font-family="Times Roman,serif" font-size="14.00" fill="gray">\PDOStatement</text>
</g>
<!-- \\Firebird_Result&#45;&gt;\\PDOStatement -->
<g id="edge5" class="edge"><title>\\Firebird_Result&#45;&gt;\\PDOStatement</title>
<path fill="none" stroke="black" d="M530.433,-329.744C520.145,-325.821 509.994,-320.422 502,-313 443.364,-258.561 493.404,-196.803 430,-148 416.189,-137.37 399.361,-130.886 382.164,-127.081"/>
<polygon fill="none" stroke="black" points="382.497,-123.581 372.017,-125.14 381.181,-130.457 382.497,-123.581"/>
</g>
<!-- \\Firebird_Util -->
<g id="node4" class="node"><title>\\Firebird_Util</title>
<polygon fill="none" stroke="black" points="620,-952 538,-952 538,-916 620,-916 620,-952"/>
<text text-anchor="middle" x="579" y="-930.6" font-family="Times Roman,serif" font-size="11.00">Firebird_Util</text>
</g>
<!-- \\DB_Util -->
<g id="node8" class="node"><title>\\DB_Util</title>
<polygon fill="none" stroke="black" points="325,-925 249,-925 249,-889 325,-889 325,-925"/>
<text text-anchor="start" x="257.5" y="-912.433" font-family="Times Roman,serif" font-size="11.00">«abstract»</text>
<text text-anchor="start" x="266.5" y="-899.233" font-family="Times Roman,serif" font-size="11.00">DB_Util</text>
</g>
<!-- \\Firebird_Util&#45;&gt;\\DB_Util -->
<g id="edge7" class="edge"><title>\\Firebird_Util&#45;&gt;\\DB_Util</title>
<path fill="none" stroke="black" d="M537.783,-930.189C484.504,-925.262 391.879,-916.698 335.34,-911.47"/>
<polygon fill="none" stroke="black" points="335.501,-907.97 325.221,-910.534 334.856,-914.94 335.501,-907.97"/>
</g>
<!-- \\Query_Builder -->
<g id="node5" class="node"><title>\\Query_Builder</title>
<polygon fill="none" stroke="black" points="626,-1060 532,-1060 532,-1024 626,-1024 626,-1060"/>
<text text-anchor="middle" x="579" y="-1038.6" font-family="Times Roman,serif" font-size="11.00">Query_Builder</text>
</g>
<!-- \\iQuery_Builder -->
<g id="node21" class="node"><title>\\iQuery_Builder</title>
<polygon fill="none" stroke="black" points="336,-1060 238,-1060 238,-1024 336,-1024 336,-1060"/>
<text text-anchor="middle" x="287" y="-1038.6" font-family="Times Roman,serif" font-size="11.00">iQuery_Builder</text>
</g>
<!-- \\Query_Builder&#45;&gt;\\iQuery_Builder -->
<g id="edge9" class="edge"><title>\\Query_Builder&#45;&gt;\\iQuery_Builder</title>
<path fill="none" stroke="black" stroke-dasharray="1,5" d="M531.435,-1042C480.879,-1042 400.848,-1042 346.235,-1042"/>
<polygon fill="none" stroke="black" points="346.007,-1038.5 336.007,-1042 346.007,-1045.5 346.007,-1038.5"/>
</g>
<!-- \\Firebird -->
<g id="node6" class="node"><title>\\Firebird</title>
<polygon fill="none" stroke="black" points="608,-520 550,-520 550,-484 608,-484 608,-520"/>
<text text-anchor="middle" x="579" y="-498.6" font-family="Times Roman,serif" font-size="11.00">Firebird</text>
</g>
<!-- \\Firebird&#45;&gt;\\DB_PDO -->
<g id="edge11" class="edge"><title>\\Firebird&#45;&gt;\\DB_PDO</title>
<path fill="none" stroke="black" d="M549.934,-499.312C499.752,-494.672 396.38,-485.114 335.263,-479.463"/>
<polygon fill="none" stroke="black" points="335.379,-475.959 325.099,-478.523 334.734,-482.929 335.379,-475.959"/>
</g>
<!-- \\MySQL_Util -->
<g id="node7" class="node"><title>\\MySQL_Util</title>
<polygon fill="none" stroke="black" points="618,-898 540,-898 540,-862 618,-862 618,-898"/>
<text text-anchor="middle" x="579" y="-876.6" font-family="Times Roman,serif" font-size="11.00">MySQL_Util</text>
</g>
<!-- \\MySQL_Util&#45;&gt;\\DB_Util -->
<g id="edge13" class="edge"><title>\\MySQL_Util&#45;&gt;\\DB_Util</title>
<path fill="none" stroke="black" d="M539.316,-883.669C486.322,-888.57 392.513,-897.244 335.42,-902.523"/>
<polygon fill="none" stroke="black" points="334.84,-899.061 325.205,-903.467 335.485,-906.032 334.84,-899.061"/>
</g>
<!-- \\SQLite_Util -->
<g id="node9" class="node"><title>\\SQLite_Util</title>
<polygon fill="none" stroke="black" points="617,-844 541,-844 541,-808 617,-808 617,-844"/>
<text text-anchor="middle" x="579" y="-822.6" font-family="Times Roman,serif" font-size="11.00">SQLite_Util</text>
</g>
<!-- \\SQLite_Util&#45;&gt;\\DB_Util -->
<g id="edge15" class="edge"><title>\\SQLite_Util&#45;&gt;\\DB_Util</title>
<path fill="none" stroke="black" d="M540.225,-836.756C487.246,-851.452 392.288,-877.793 334.918,-893.708"/>
<polygon fill="none" stroke="black" points="333.708,-890.411 325.008,-896.457 335.579,-897.156 333.708,-890.411"/>
</g>
<!-- \\PgSQL_Util -->
<g id="node10" class="node"><title>\\PgSQL_Util</title>
<polygon fill="none" stroke="black" points="617,-1006 541,-1006 541,-970 617,-970 617,-1006"/>
<text text-anchor="middle" x="579" y="-984.6" font-family="Times Roman,serif" font-size="11.00">PgSQL_Util</text>
</g>
<!-- \\PgSQL_Util&#45;&gt;\\DB_Util -->
<g id="edge17" class="edge"><title>\\PgSQL_Util&#45;&gt;\\DB_Util</title>
<path fill="none" stroke="black" d="M540.826,-977.411C488.034,-962.766 392.746,-936.334 335.135,-920.353"/>
<polygon fill="none" stroke="black" points="335.755,-916.892 325.183,-917.592 333.884,-923.638 335.755,-916.892"/>
</g>
<!-- \\PgSQL_SQL -->
<g id="node11" class="node"><title>\\PgSQL_SQL</title>
<polygon fill="none" stroke="black" points="619,-736 539,-736 539,-700 619,-700 619,-736"/>
<text text-anchor="middle" x="579" y="-714.6" font-family="Times Roman,serif" font-size="11.00">PgSQL_SQL</text>
</g>
<!-- \\iDB_SQL -->
<g id="node22" class="node"><title>\\iDB_SQL</title>
<polygon fill="none" stroke="black" points="318,-709 256,-709 256,-673 318,-673 318,-709"/>
<text text-anchor="middle" x="287" y="-687.6" font-family="Times Roman,serif" font-size="11.00">iDB_SQL</text>
</g>
<!-- \\PgSQL_SQL&#45;&gt;\\iDB_SQL -->
<g id="edge19" class="edge"><title>\\PgSQL_SQL&#45;&gt;\\iDB_SQL</title>
<path fill="none" stroke="black" stroke-dasharray="1,5" d="M538.705,-714.274C483.588,-709.178 385.151,-700.076 329.104,-694.893"/>
<polygon fill="none" stroke="black" points="329.098,-691.378 318.819,-693.942 328.454,-698.348 329.098,-691.378"/>
</g>
<!-- \\MySQL_SQL -->
<g id="node12" class="node"><title>\\MySQL_SQL</title>
<polygon fill="none" stroke="black" points="620,-682 538,-682 538,-646 620,-646 620,-682"/>
<text text-anchor="middle" x="579" y="-660.6" font-family="Times Roman,serif" font-size="11.00">MySQL_SQL</text>
</g>
<!-- \\MySQL_SQL&#45;&gt;\\iDB_SQL -->
<g id="edge21" class="edge"><title>\\MySQL_SQL&#45;&gt;\\iDB_SQL</title>
<path fill="none" stroke="black" stroke-dasharray="1,5" d="M537.783,-667.811C482.4,-672.932 384.499,-681.985 328.813,-687.134"/>
<polygon fill="none" stroke="black" points="328.23,-683.673 318.595,-688.079 328.875,-690.643 328.23,-683.673"/>
</g>
<!-- \\Firebird_SQL -->
<g id="node13" class="node"><title>\\Firebird_SQL</title>
<polygon fill="none" stroke="black" points="621,-628 537,-628 537,-592 621,-592 621,-628"/>
<text text-anchor="middle" x="579" y="-606.6" font-family="Times Roman,serif" font-size="11.00">Firebird_SQL</text>
</g>
<!-- \\Firebird_SQL&#45;&gt;\\iDB_SQL -->
<g id="edge23" class="edge"><title>\\Firebird_SQL&#45;&gt;\\iDB_SQL</title>
<path fill="none" stroke="black" stroke-dasharray="1,5" d="M536.228,-621.865C480.454,-637.336 383.531,-664.222 328.428,-679.508"/>
<polygon fill="none" stroke="black" points="327.346,-676.176 318.645,-682.222 329.217,-682.921 327.346,-676.176"/>
</g>
<!-- \\SQLite -->
<g id="node14" class="node"><title>\\SQLite</title>
<polygon fill="none" stroke="black" points="606,-466 552,-466 552,-430 606,-430 606,-466"/>
<text text-anchor="middle" x="579" y="-444.6" font-family="Times Roman,serif" font-size="11.00">SQLite</text>
</g>
<!-- \\SQLite&#45;&gt;\\DB_PDO -->
<g id="edge25" class="edge"><title>\\SQLite&#45;&gt;\\DB_PDO</title>
<path fill="none" stroke="black" d="M551.792,-450.516C502.406,-455.082 397.407,-464.791 335.496,-470.516"/>
<polygon fill="none" stroke="black" points="334.838,-467.062 325.203,-471.468 335.482,-474.032 334.838,-467.062"/>
</g>
<!-- \\SQLite_SQL -->
<g id="node15" class="node"><title>\\SQLite_SQL</title>
<polygon fill="none" stroke="black" points="619,-790 539,-790 539,-754 619,-754 619,-790"/>
<text text-anchor="middle" x="579" y="-768.6" font-family="Times Roman,serif" font-size="11.00">SQLite_SQL</text>
</g>
<!-- \\SQLite_SQL&#45;&gt;\\iDB_SQL -->
<g id="edge27" class="edge"><title>\\SQLite_SQL&#45;&gt;\\iDB_SQL</title>
<path fill="none" stroke="black" stroke-dasharray="1,5" d="M538.705,-760.822C483.474,-745.501 384.742,-718.113 328.755,-702.583"/>
<polygon fill="none" stroke="black" points="329.39,-699.127 318.819,-699.826 327.519,-705.872 329.39,-699.127"/>
</g>
<!-- \\PgSQL -->
<g id="node16" class="node"><title>\\PgSQL</title>
<polygon fill="none" stroke="black" points="606,-412 552,-412 552,-376 606,-376 606,-412"/>
<text text-anchor="middle" x="579" y="-390.6" font-family="Times Roman,serif" font-size="11.00">PgSQL</text>
</g>
<!-- \\PgSQL&#45;&gt;\\DB_PDO -->
<g id="edge29" class="edge"><title>\\PgSQL&#45;&gt;\\DB_PDO</title>
<path fill="none" stroke="black" d="M551.719,-402.965C536.903,-407.984 518.328,-414.521 502,-421 469.451,-433.915 463.601,-443.14 430,-453 399.089,-462.071 363.26,-467.575 335.198,-470.809"/>
<polygon fill="none" stroke="black" points="334.794,-467.332 325.234,-471.9 335.556,-474.29 334.794,-467.332"/>
</g>
<!-- \\BadDBDriverException -->
<g id="node17" class="node"><title>\\BadDBDriverException</title>
<polygon fill="none" stroke="black" points="650,-304 508,-304 508,-268 650,-268 650,-304"/>
<text text-anchor="middle" x="579" y="-282.6" font-family="Times Roman,serif" font-size="11.00">BadDBDriverException</text>
</g>
<!-- \\InvalidArgumentException -->
<g id="node40" class="node"><title>\\InvalidArgumentException</title>
<ellipse fill="none" stroke="black" cx="287" cy="-72" rx="138.86" ry="18"/>
<text text-anchor="middle" x="287" y="-67.4" font-family="Times Roman,serif" font-size="14.00" fill="gray">\InvalidArgumentException</text>
</g>
<!-- \\BadDBDriverException&#45;&gt;\\InvalidArgumentException -->
<g id="edge31" class="edge"><title>\\BadDBDriverException&#45;&gt;\\InvalidArgumentException</title>
<path fill="none" stroke="black" d="M514.091,-267.872C509.746,-265.293 505.653,-262.353 502,-259 444.551,-206.27 491.254,-147.258 430,-99 423.79,-94.1079 416.963,-90.0083 409.76,-86.5805"/>
<polygon fill="none" stroke="black" points="411.025,-83.3149 400.455,-82.589 408.266,-89.7479 411.025,-83.3149"/>
</g>
<!-- \\BadConnectionException -->
<g id="node18" class="node"><title>\\BadConnectionException</title>
<polygon fill="none" stroke="black" points="656,-196 502,-196 502,-160 656,-160 656,-196"/>
<text text-anchor="middle" x="579" y="-174.6" font-family="Times Roman,serif" font-size="11.00">BadConnectionException</text>
</g>
<!-- \\UnexpectedValueException -->
<g id="node42" class="node"><title>\\UnexpectedValueException</title>
<ellipse fill="none" stroke="black" cx="287" cy="-18" rx="142.885" ry="18"/>
<text text-anchor="middle" x="287" y="-13.4" font-family="Times Roman,serif" font-size="14.00" fill="gray">\UnexpectedValueException</text>
</g>
<!-- \\BadConnectionException&#45;&gt;\\UnexpectedValueException -->
<g id="edge33" class="edge"><title>\\BadConnectionException&#45;&gt;\\UnexpectedValueException</title>
<path fill="none" stroke="black" d="M564.649,-159.998C540.297,-130.794 487.857,-73.4973 430,-45 420.639,-40.3894 410.577,-36.5637 400.283,-33.3896"/>
<polygon fill="none" stroke="black" points="400.935,-29.9357 390.358,-30.5418 399.005,-36.6642 400.935,-29.9357"/>
</g>
<!-- \\Query_Parser -->
<g id="node19" class="node"><title>\\Query_Parser</title>
<polygon fill="none" stroke="black" points="624,-250 534,-250 534,-214 624,-214 624,-250"/>
<text text-anchor="middle" x="579" y="-228.6" font-family="Times Roman,serif" font-size="11.00">Query_Parser</text>
</g>
<!-- \\MySQL -->
<g id="node20" class="node"><title>\\MySQL</title>
<polygon fill="none" stroke="black" points="606,-574 552,-574 552,-538 606,-538 606,-574"/>
<text text-anchor="middle" x="579" y="-552.6" font-family="Times Roman,serif" font-size="11.00">MySQL</text>
</g>
<!-- \\MySQL&#45;&gt;\\DB_PDO -->
<g id="edge35" class="edge"><title>\\MySQL&#45;&gt;\\DB_PDO</title>
<path fill="none" stroke="black" d="M551.266,-548.307C501.506,-534.503 396.52,-505.381 334.905,-488.289"/>
<polygon fill="none" stroke="black" points="335.607,-484.851 325.035,-485.551 333.736,-491.597 335.607,-484.851"/>
</g>
</g>
</svg>
