<?xml version="1.0" encoding="UTF-8" standalone="no"?>
<!DOCTYPE svg PUBLIC "-//W3C//DTD SVG 1.1//EN"
 "http://www.w3.org/Graphics/SVG/1.1/DTD/svg11.dtd">
<!-- Generated by graphviz version 2.26.3 (20100126.1600)
 -->
<!-- Title: G Pages: 1 -->
<svg width="566pt" height="1084pt"
 viewBox="0.00 0.00 566.00 1084.00" xmlns="http://www.w3.org/2000/svg" xmlns:xlink="http://www.w3.org/1999/xlink">
<g id="graph1" class="graph" transform="scale(1 1) rotate(0) translate(4 1080)">
<title>G</title>
<polygon fill="white" stroke="white" points="-4,5 -4,-1080 563,-1080 563,5 -4,5"/>
<g id="graph2" class="cluster"><title>cluster_default</title>
<polyline fill="none" stroke="none" points="228,-44 538,-44 "/>
<path fill="none" stroke="none" d="M538,-44C544,-44 550,-50 550,-56"/>
<polyline fill="none" stroke="none" points="550,-56 550,-1056 "/>
<path fill="none" stroke="none" d="M550,-1056C550,-1062 544,-1068 538,-1068"/>
<polyline fill="none" stroke="none" points="538,-1068 228,-1068 "/>
<path fill="none" stroke="none" d="M228,-1068C222,-1068 216,-1062 216,-1056"/>
<polyline fill="none" stroke="none" points="216,-1056 216,-56 "/>
<path fill="none" stroke="none" d="M216,-56C216,-50 222,-44 228,-44"/>
</g>
<!-- \\DB_Reg -->
<g id="node2" class="node"><title>\\DB_Reg</title>
<a xlink:href="classes.db_reg.html" xlink:title="DB_Reg" target="_parent">
<polygon fill="none" stroke="black" points="511,-1060 455,-1060 455,-1024 511,-1024 511,-1060"/>
<text text-anchor="middle" x="483" y="-1038.6" font-family="Courier,monospace" font-size="11.00">DB_Reg</text>
</a>
</g>
<!-- \\Settings -->
<g id="node3" class="node"><title>\\Settings</title>
<a xlink:href="classes.settings.html" xlink:title="Settings" target="_parent">
<polygon fill="none" stroke="black" points="518,-1006 448,-1006 448,-970 518,-970 518,-1006"/>
<text text-anchor="middle" x="483" y="-984.6" font-family="Courier,monospace" font-size="11.00">Settings</text>
</a>
</g>
<!-- \\DB_SQL -->
<g id="node4" class="node"><title>\\DB_SQL</title>
<a xlink:href="classes.db_sql.html" xlink:title="«abstract»&lt;br/&gt;DB_SQL" target="_parent">
<polygon fill="none" stroke="black" points="309,-547 225,-547 225,-511 309,-511 309,-547"/>
<text text-anchor="start" x="233" y="-534.433" font-family="Courier,monospace" font-size="11.00">«abstract»</text>
<text text-anchor="start" x="246.5" y="-521.233" font-family="Courier,monospace" font-size="11.00">DB_SQL</text>
</a>
</g>
<!-- \\StdClass -->
<g id="node25" class="node"><title>\\StdClass</title>
<ellipse fill="none" stroke="black" cx="55" cy="-650" rx="55.0073" ry="18"/>
<text text-anchor="middle" x="55" y="-645.4" font-family="Times Roman,serif" font-size="14.00" fill="gray">\StdClass</text>
</g>
<!-- \\DB_SQL&#45;&gt;\\StdClass -->
<g id="edge3" class="edge"><title>\\DB_SQL&#45;&gt;\\StdClass</title>
<path fill="none" stroke="black" d="M235.261,-547.115C196.709,-569.119 131.82,-606.155 91.312,-629.275"/>
<polygon fill="none" stroke="black" points="89.5116,-626.272 82.5616,-634.269 92.9815,-632.352 89.5116,-626.272"/>
</g>
<!-- \\DB_PDO -->
<g id="node5" class="node"><title>\\DB_PDO</title>
<a xlink:href="classes.db_pdo.html" xlink:title="«abstract»&lt;br/&gt;DB_PDO" target="_parent">
<polygon fill="none" stroke="black" points="309,-250 225,-250 225,-214 309,-214 309,-250"/>
<text text-anchor="start" x="233" y="-237.433" font-family="Courier,monospace" font-size="11.00">«abstract»</text>
<text text-anchor="start" x="246.5" y="-224.233" font-family="Courier,monospace" font-size="11.00">DB_PDO</text>
</a>
</g>
<!-- \\PDO -->
<g id="node27" class="node"><title>\\PDO</title>
<ellipse fill="none" stroke="black" cx="55" cy="-232" rx="35.0527" ry="18"/>
<text text-anchor="middle" x="55" y="-227.4" font-family="Times Roman,serif" font-size="14.00" fill="gray">\PDO</text>
</g>
<!-- \\DB_PDO&#45;&gt;\\PDO -->
<g id="edge5" class="edge"><title>\\DB_PDO&#45;&gt;\\PDO</title>
<path fill="none" stroke="black" d="M224.354,-232C188.587,-232 137.621,-232 100.957,-232"/>
<polygon fill="none" stroke="black" points="100.545,-228.5 90.5452,-232 100.545,-235.5 100.545,-228.5"/>
</g>
<!-- \\Query_Builder -->
<g id="node6" class="node"><title>\\Query_Builder</title>
<a xlink:href="classes.query_builder.html" xlink:title="Query_Builder" target="_parent">
<polygon fill="none" stroke="black" points="535,-952 431,-952 431,-916 535,-916 535,-952"/>
<text text-anchor="middle" x="483" y="-930.6" font-family="Courier,monospace" font-size="11.00">Query_Builder</text>
</a>
</g>
<!-- \\DB_Util -->
<g id="node7" class="node"><title>\\DB_Util</title>
<a xlink:href="classes.db_util.html" xlink:title="«abstract»&lt;br/&gt;DB_Util" target="_parent">
<polygon fill="none" stroke="black" points="309,-763 225,-763 225,-727 309,-727 309,-763"/>
<text text-anchor="start" x="233" y="-750.433" font-family="Courier,monospace" font-size="11.00">«abstract»</text>
<text text-anchor="start" x="243" y="-737.233" font-family="Courier,monospace" font-size="11.00">DB_Util</text>
</a>
</g>
<!-- \\DB_Util&#45;&gt;\\StdClass -->
<g id="edge7" class="edge"><title>\\DB_Util&#45;&gt;\\StdClass</title>
<path fill="none" stroke="black" d="M226.625,-726.908C189.413,-710.232 134.411,-685.585 96.764,-668.715"/>
<polygon fill="none" stroke="black" points="98.145,-665.499 87.588,-664.603 95.2824,-671.886 98.145,-665.499"/>
</g>
<!-- \\PgSQL_SQL -->
<g id="node8" class="node"><title>\\PgSQL_SQL</title>
<a xlink:href="drivers.pgsql.pgsql_sql.html" xlink:title="PgSQL_SQL" target="_parent">
<polygon fill="none" stroke="black" points="521,-628 445,-628 445,-592 521,-592 521,-628"/>
<text text-anchor="middle" x="483" y="-606.6" font-family="Courier,monospace" font-size="11.00">PgSQL_SQL</text>
</a>
</g>
<!-- \\PgSQL_SQL&#45;&gt;\\DB_SQL -->
<g id="edge9" class="edge"><title>\\PgSQL_SQL&#45;&gt;\\DB_SQL</title>
<path fill="none" stroke="black" d="M444.384,-595.519C409.481,-582.43 357.814,-563.055 319.232,-548.587"/>
<polygon fill="none" stroke="black" points="320.315,-545.255 309.723,-545.021 317.857,-551.81 320.315,-545.255"/>
</g>
<!-- \\PgSQL_Util -->
<g id="node9" class="node"><title>\\PgSQL_Util</title>
<a xlink:href="drivers.pgsql.pgsql_util.html" xlink:title="PgSQL_Util" target="_parent">
<polygon fill="none" stroke="black" points="525,-898 441,-898 441,-862 525,-862 525,-898"/>
<text text-anchor="middle" x="483" y="-876.6" font-family="Courier,monospace" font-size="11.00">PgSQL_Util</text>
</a>
</g>
<!-- \\PgSQL_Util&#45;&gt;\\DB_Util -->
<g id="edge11" class="edge"><title>\\PgSQL_Util&#45;&gt;\\DB_Util</title>
<path fill="none" stroke="black" d="M440.967,-861.855C435.186,-859.045 429.389,-856.056 424,-853 378.756,-827.342 329.869,-792.466 298.878,-769.371"/>
<polygon fill="none" stroke="black" points="300.731,-766.385 290.63,-763.186 296.531,-771.985 300.731,-766.385"/>
</g>
<!-- \\PgSQL -->
<g id="node10" class="node"><title>\\PgSQL</title>
<a xlink:href="drivers.pgsql.pgsql_driver.html" xlink:title="PgSQL" target="_parent">
<polygon fill="none" stroke="black" points="510,-358 456,-358 456,-322 510,-322 510,-358"/>
<text text-anchor="middle" x="483" y="-336.6" font-family="Courier,monospace" font-size="11.00">PgSQL</text>
</a>
</g>
<!-- \\PgSQL&#45;&gt;\\DB_PDO -->
<g id="edge13" class="edge"><title>\\PgSQL&#45;&gt;\\DB_PDO</title>
<path fill="none" stroke="black" d="M455.852,-327.9C445.798,-323.333 434.332,-318.026 424,-313 384.965,-294.012 341.105,-271.262 309.686,-254.713"/>
<polygon fill="none" stroke="black" points="311.24,-251.575 300.762,-250.003 307.972,-257.766 311.24,-251.575"/>
</g>
<!-- \\ODBC_Util -->
<g id="node11" class="node"><title>\\ODBC_Util</title>
<a xlink:href="drivers.odbc.odbc_util.html" xlink:title="ODBC_Util" target="_parent">
<polygon fill="none" stroke="black" points="521,-844 445,-844 445,-808 521,-808 521,-844"/>
<text text-anchor="middle" x="483" y="-822.6" font-family="Courier,monospace" font-size="11.00">ODBC_Util</text>
</a>
</g>
<!-- \\ODBC_Util&#45;&gt;\\DB_Util -->
<g id="edge15" class="edge"><title>\\ODBC_Util&#45;&gt;\\DB_Util</title>
<path fill="none" stroke="black" d="M444.384,-811.519C409.481,-798.43 357.814,-779.055 319.232,-764.587"/>
<polygon fill="none" stroke="black" points="320.315,-761.255 309.723,-761.021 317.857,-767.81 320.315,-761.255"/>
</g>
<!-- \\ODBC_SQL -->
<g id="node12" class="node"><title>\\ODBC_SQL</title>
<a xlink:href="drivers.odbc.odbc_sql.html" xlink:title="ODBC_SQL" target="_parent">
<polygon fill="none" stroke="black" points="518,-574 448,-574 448,-538 518,-538 518,-574"/>
<text text-anchor="middle" x="483" y="-552.6" font-family="Courier,monospace" font-size="11.00">ODBC_SQL</text>
</a>
</g>
<!-- \\ODBC_SQL&#45;&gt;\\DB_SQL -->
<g id="edge17" class="edge"><title>\\ODBC_SQL&#45;&gt;\\DB_SQL</title>
<path fill="none" stroke="black" d="M447.815,-551.602C413.064,-547.258 359.487,-540.561 319.664,-535.583"/>
<polygon fill="none" stroke="black" points="319.955,-532.092 309.598,-534.325 319.087,-539.038 319.955,-532.092"/>
</g>
<!-- \\ODBC -->
<g id="node13" class="node"><title>\\ODBC</title>
<a xlink:href="drivers.odbc.odbc_driver.html" xlink:title="ODBC" target="_parent">
<polygon fill="none" stroke="black" points="510,-304 456,-304 456,-268 510,-268 510,-304"/>
<text text-anchor="middle" x="483" y="-282.6" font-family="Courier,monospace" font-size="11.00">ODBC</text>
</a>
</g>
<!-- \\ODBC&#45;&gt;\\DB_PDO -->
<g id="edge19" class="edge"><title>\\ODBC&#45;&gt;\\DB_PDO</title>
<path fill="none" stroke="black" d="M455.643,-279.161C421.521,-270.63 362.445,-255.861 319.476,-245.119"/>
<polygon fill="none" stroke="black" points="320.298,-241.717 309.747,-242.687 318.6,-248.508 320.298,-241.717"/>
</g>
<!-- \\MySQL_Util -->
<g id="node14" class="node"><title>\\MySQL_Util</title>
<a xlink:href="drivers.mysql.mysql_util.html" xlink:title="MySQL_Util" target="_parent">
<polygon fill="none" stroke="black" points="525,-790 441,-790 441,-754 525,-754 525,-790"/>
<text text-anchor="middle" x="483" y="-768.6" font-family="Courier,monospace" font-size="11.00">MySQL_Util</text>
</a>
</g>
<!-- \\MySQL_Util&#45;&gt;\\DB_Util -->
<g id="edge21" class="edge"><title>\\MySQL_Util&#45;&gt;\\DB_Util</title>
<path fill="none" stroke="black" d="M440.325,-766.666C405.712,-762.339 356.759,-756.22 319.701,-751.588"/>
<polygon fill="none" stroke="black" points="319.943,-748.091 309.586,-750.323 319.075,-755.037 319.943,-748.091"/>
</g>
<!-- \\MySQL -->
<g id="node15" class="node"><title>\\MySQL</title>
<a xlink:href="drivers.mysql.mysql_driver.html" xlink:title="MySQL" target="_parent">
<polygon fill="none" stroke="black" points="510,-250 456,-250 456,-214 510,-214 510,-250"/>
<text text-anchor="middle" x="483" y="-228.6" font-family="Courier,monospace" font-size="11.00">MySQL</text>
</a>
</g>
<!-- \\MySQL&#45;&gt;\\DB_PDO -->
<g id="edge23" class="edge"><title>\\MySQL&#45;&gt;\\DB_PDO</title>
<path fill="none" stroke="black" d="M455.643,-232C421.593,-232 362.693,-232 319.747,-232"/>
<polygon fill="none" stroke="black" points="319.747,-228.5 309.747,-232 319.747,-235.5 319.747,-228.5"/>
</g>
<!-- \\MySQL_SQL -->
<g id="node16" class="node"><title>\\MySQL_SQL</title>
<a xlink:href="drivers.mysql.mysql_sql.html" xlink:title="MySQL_SQL" target="_parent">
<polygon fill="none" stroke="black" points="522,-520 444,-520 444,-484 522,-484 522,-520"/>
<text text-anchor="middle" x="483" y="-498.6" font-family="Courier,monospace" font-size="11.00">MySQL_SQL</text>
</a>
</g>
<!-- \\MySQL_SQL&#45;&gt;\\DB_SQL -->
<g id="edge25" class="edge"><title>\\MySQL_SQL&#45;&gt;\\DB_SQL</title>
<path fill="none" stroke="black" d="M443.884,-506.889C409.065,-511.242 357.851,-517.644 319.48,-522.44"/>
<polygon fill="none" stroke="black" points="319.01,-518.971 309.522,-523.685 319.878,-525.917 319.01,-518.971"/>
</g>
<!-- \\SQLite_Util -->
<g id="node17" class="node"><title>\\SQLite_Util</title>
<a xlink:href="drivers.sqlite.sqlite_util.html" xlink:title="SQLite_Util" target="_parent">
<polygon fill="none" stroke="black" points="528,-736 438,-736 438,-700 528,-700 528,-736"/>
<text text-anchor="middle" x="483" y="-714.6" font-family="Courier,monospace" font-size="11.00">SQLite_Util</text>
</a>
</g>
<!-- \\SQLite_Util&#45;&gt;\\DB_Util -->
<g id="edge27" class="edge"><title>\\SQLite_Util&#45;&gt;\\DB_Util</title>
<path fill="none" stroke="black" d="M437.456,-723.693C403.097,-727.988 355.888,-733.889 319.863,-738.392"/>
<polygon fill="none" stroke="black" points="319.034,-734.968 309.545,-739.682 319.902,-741.914 319.034,-734.968"/>
</g>
<!-- \\SQLite -->
<g id="node18" class="node"><title>\\SQLite</title>
<a xlink:href="drivers.sqlite.sqlite_driver.html" xlink:title="SQLite" target="_parent">
<polygon fill="none" stroke="black" points="511,-196 455,-196 455,-160 511,-160 511,-196"/>
<text text-anchor="middle" x="483" y="-174.6" font-family="Courier,monospace" font-size="11.00">SQLite</text>
</a>
</g>
<!-- \\SQLite&#45;&gt;\\DB_PDO -->
<g id="edge29" class="edge"><title>\\SQLite&#45;&gt;\\DB_PDO</title>
<path fill="none" stroke="black" d="M454.317,-185.171C420.001,-193.75 361.875,-208.281 319.456,-218.886"/>
<polygon fill="none" stroke="black" points="318.429,-215.535 309.577,-221.356 320.127,-222.326 318.429,-215.535"/>
</g>
<!-- \\SQLite_SQL -->
<g id="node19" class="node"><title>\\SQLite_SQL</title>
<a xlink:href="drivers.sqlite.sqlite_sql.html" xlink:title="SQLite_SQL" target="_parent">
<polygon fill="none" stroke="black" points="525,-466 441,-466 441,-430 525,-430 525,-466"/>
<text text-anchor="middle" x="483" y="-444.6" font-family="Courier,monospace" font-size="11.00">SQLite_SQL</text>
</a>
</g>
<!-- \\SQLite_SQL&#45;&gt;\\DB_SQL -->
<g id="edge31" class="edge"><title>\\SQLite_SQL&#45;&gt;\\DB_SQL</title>
<path fill="none" stroke="black" d="M440.84,-463.81C406.128,-476.827 356.742,-495.347 319.473,-509.323"/>
<polygon fill="none" stroke="black" points="317.926,-506.165 309.792,-512.953 320.384,-512.719 317.926,-506.165"/>
</g>
<!-- \\Firebird_SQL -->
<g id="node20" class="node"><title>\\Firebird_SQL</title>
<a xlink:href="drivers.firebird.firebird_sql.html" xlink:title="Firebird_SQL" target="_parent">
<polygon fill="none" stroke="black" points="531,-412 435,-412 435,-376 531,-376 531,-412"/>
<text text-anchor="middle" x="483" y="-390.6" font-family="Courier,monospace" font-size="11.00">Firebird_SQL</text>
</a>
</g>
<!-- \\Firebird_SQL&#45;&gt;\\DB_SQL -->
<g id="edge33" class="edge"><title>\\Firebird_SQL&#45;&gt;\\DB_SQL</title>
<path fill="none" stroke="black" d="M440.967,-412.145C435.186,-414.955 429.389,-417.944 424,-421 378.756,-446.658 329.869,-481.534 298.878,-504.629"/>
<polygon fill="none" stroke="black" points="296.531,-502.015 290.63,-510.814 300.731,-507.615 296.531,-502.015"/>
</g>
<!-- \\Firebird_Result -->
<g id="node21" class="node"><title>\\Firebird_Result</title>
<a xlink:href="drivers.firebird.firebird_result.html" xlink:title="Firebird_Result" target="_parent">
<polygon fill="none" stroke="black" points="541,-88 425,-88 425,-52 541,-52 541,-88"/>
<text text-anchor="middle" x="483" y="-66.6" font-family="Courier,monospace" font-size="11.00">Firebird_Result</text>
</a>
</g>
<!-- \\PDOStatement -->
<g id="node43" class="node"><title>\\PDOStatement</title>
<ellipse fill="none" stroke="black" cx="267" cy="-18" rx="85.1942" ry="18"/>
<text text-anchor="middle" x="267" y="-13.4" font-family="Times Roman,serif" font-size="14.00" fill="gray">\PDOStatement</text>
</g>
<!-- \\Firebird_Result&#45;&gt;\\PDOStatement -->
<g id="edge35" class="edge"><title>\\Firebird_Result&#45;&gt;\\PDOStatement</title>
<path fill="none" stroke="black" d="M424.262,-55.8595C396.213,-49.1069 362.522,-40.996 333.531,-34.0167"/>
<polygon fill="none" stroke="black" points="334.031,-30.5372 323.49,-31.5994 332.393,-37.3428 334.031,-30.5372"/>
</g>
<!-- \\Firebird -->
<g id="node22" class="node"><title>\\Firebird</title>
<a xlink:href="drivers.firebird.firebird_driver.html" xlink:title="Firebird" target="_parent">
<polygon fill="none" stroke="black" points="518,-142 448,-142 448,-106 518,-106 518,-142"/>
<text text-anchor="middle" x="483" y="-120.6" font-family="Courier,monospace" font-size="11.00">Firebird</text>
</a>
</g>
<!-- \\Firebird&#45;&gt;\\DB_PDO -->
<g id="edge37" class="edge"><title>\\Firebird&#45;&gt;\\DB_PDO</title>
<path fill="none" stroke="black" d="M447.906,-138.262C439.844,-142.026 431.454,-146.349 424,-151 388.9,-172.9 388.888,-191.268 352,-210 342.01,-215.073 330.75,-219.046 319.773,-222.133"/>
<polygon fill="none" stroke="black" points="318.611,-218.819 309.815,-224.725 320.375,-225.593 318.611,-218.819"/>
</g>
<!-- \\Firebird_Util -->
<g id="node23" class="node"><title>\\Firebird_Util</title>
<a xlink:href="drivers.firebird.firebird_util.html" xlink:title="Firebird_Util" target="_parent">
<polygon fill="none" stroke="black" points="535,-682 431,-682 431,-646 535,-646 535,-682"/>
<text text-anchor="middle" x="483" y="-660.6" font-family="Courier,monospace" font-size="11.00">Firebird_Util</text>
</a>
</g>
<!-- \\Firebird_Util&#45;&gt;\\DB_Util -->
<g id="edge39" class="edge"><title>\\Firebird_Util&#45;&gt;\\DB_Util</title>
<path fill="none" stroke="black" d="M434.794,-682.077C400.472,-694.948 354.384,-712.231 319.194,-725.427"/>
<polygon fill="none" stroke="black" points="317.711,-722.245 309.577,-729.034 320.169,-728.8 317.711,-722.245"/>
</g>
</g>
</svg>
