<?xml version="1.0" encoding="UTF-8" standalone="no"?>
<!DOCTYPE svg PUBLIC "-//W3C//DTD SVG 1.1//EN"
 "http://www.w3.org/Graphics/SVG/1.1/DTD/svg11.dtd">
<!-- Generated by graphviz version 2.26.3 (20100126.1600)
 -->
<!-- Title: G Pages: 1 -->
<svg width="566pt" height="1084pt"
 viewBox="0.00 0.00 566.00 1084.00" xmlns="http://www.w3.org/2000/svg" xmlns:xlink="http://www.w3.org/1999/xlink">
<g id="graph1" class="graph" transform="scale(1 1) rotate(0) translate(4 1080)">
<title>G</title>
<polygon fill="white" stroke="white" points="-4,5 -4,-1080 563,-1080 563,5 -4,5"/>
<g id="graph2" class="cluster"><title>cluster_default</title>
<polyline fill="none" stroke="none" points="228,-44 538,-44 "/>
<path fill="none" stroke="none" d="M538,-44C544,-44 550,-50 550,-56"/>
<polyline fill="none" stroke="none" points="550,-56 550,-1056 "/>
<path fill="none" stroke="none" d="M550,-1056C550,-1062 544,-1068 538,-1068"/>
<polyline fill="none" stroke="none" points="538,-1068 228,-1068 "/>
<path fill="none" stroke="none" d="M228,-1068C222,-1068 216,-1062 216,-1056"/>
<polyline fill="none" stroke="none" points="216,-1056 216,-56 "/>
<path fill="none" stroke="none" d="M216,-56C216,-50 222,-44 228,-44"/>
</g>
<!-- \\DB_Reg -->
<g id="node2" class="node"><title>\\DB_Reg</title>
<a xlink:href="classes.db_reg.html" xlink:title="DB_Reg" target="_parent">
<polygon fill="none" stroke="black" points="511,-250 455,-250 455,-214 511,-214 511,-250"/>
<text text-anchor="middle" x="483" y="-228.6" font-family="Courier,monospace" font-size="11.00">DB_Reg</text>
</a>
</g>
<!-- \\StdClass -->
<g id="node25" class="node"><title>\\StdClass</title>
<ellipse fill="none" stroke="black" cx="55" cy="-394" rx="55.0073" ry="18"/>
<text text-anchor="middle" x="55" y="-389.4" font-family="Times Roman,serif" font-size="14.00" fill="gray">\StdClass</text>
</g>
<!-- \\DB_Reg&#45;&gt;\\StdClass -->
<g id="edge3" class="edge"><title>\\DB_Reg&#45;&gt;\\StdClass</title>
<path fill="none" stroke="black" d="M454.282,-219.124C411.471,-201.926 329.283,-176.719 267,-205"/>
</g>
<!-- \\Settings -->
<g id="node3" class="node"><title>\\Settings</title>
<a xlink:href="classes.settings.html" xlink:title="Settings" target="_parent">
<polygon fill="none" stroke="black" points="518,-196 448,-196 448,-160 518,-160 518,-196"/>
<text text-anchor="middle" x="483" y="-174.6" font-family="Courier,monospace" font-size="11.00">Settings</text>
</a>
</g>
<!-- \\Settings&#45;&gt;\\StdClass -->
<g id="edge5" class="edge"><title>\\Settings&#45;&gt;\\StdClass</title>
<path fill="none" stroke="black" d="M447.996,-176.141C403.796,-175.158 326.358,-178.047 267,-205"/>
</g>
<!-- \\DB_SQL -->
<g id="node4" class="node"><title>\\DB_SQL</title>
<a xlink:href="classes.db_sql.html" xlink:title="«abstract»&lt;br/&gt;DB_SQL" target="_parent">
<polygon fill="none" stroke="black" points="309,-412 225,-412 225,-376 309,-376 309,-412"/>
<text text-anchor="start" x="233" y="-399.433" font-family="Courier,monospace" font-size="11.00">«abstract»</text>
<text text-anchor="start" x="246.5" y="-386.233" font-family="Courier,monospace" font-size="11.00">DB_SQL</text>
</a>
</g>
<!-- \\DB_SQL&#45;&gt;\\StdClass -->
<g id="edge7" class="edge"><title>\\DB_SQL&#45;&gt;\\StdClass</title>
<path fill="none" stroke="black" d="M224.354,-394C194.549,-394 154.188,-394 120.344,-394"/>
<polygon fill="none" stroke="black" points="120.069,-390.5 110.069,-394 120.069,-397.5 120.069,-390.5"/>
</g>
<!-- \\DB_PDO -->
<g id="node5" class="node"><title>\\DB_PDO</title>
<a xlink:href="classes.db_pdo.html" xlink:title="«abstract»&lt;br/&gt;DB_PDO" target="_parent">
<polygon fill="none" stroke="black" points="309,-952 225,-952 225,-916 309,-916 309,-952"/>
<text text-anchor="start" x="233" y="-939.433" font-family="Courier,monospace" font-size="11.00">«abstract»</text>
<text text-anchor="start" x="246.5" y="-926.233" font-family="Courier,monospace" font-size="11.00">DB_PDO</text>
</a>
</g>
<!-- \\PDO -->
<g id="node29" class="node"><title>\\PDO</title>
<ellipse fill="none" stroke="black" cx="55" cy="-934" rx="35.0527" ry="18"/>
<text text-anchor="middle" x="55" y="-929.4" font-family="Times Roman,serif" font-size="14.00" fill="gray">\PDO</text>
</g>
<!-- \\DB_PDO&#45;&gt;\\PDO -->
<g id="edge9" class="edge"><title>\\DB_PDO&#45;&gt;\\PDO</title>
<path fill="none" stroke="black" d="M224.354,-934C188.587,-934 137.621,-934 100.957,-934"/>
<polygon fill="none" stroke="black" points="100.545,-930.5 90.5452,-934 100.545,-937.5 100.545,-930.5"/>
</g>
<!-- \\Query_Builder -->
<g id="node6" class="node"><title>\\Query_Builder</title>
<a xlink:href="classes.query_builder.html" xlink:title="Query_Builder" target="_parent">
<polygon fill="none" stroke="black" points="535,-142 431,-142 431,-106 535,-106 535,-142"/>
<text text-anchor="middle" x="483" y="-120.6" font-family="Courier,monospace" font-size="11.00">Query_Builder</text>
</a>
</g>
<!-- \\Query_Builder&#45;&gt;\\StdClass -->
<g id="edge11" class="edge"><title>\\Query_Builder&#45;&gt;\\StdClass</title>
<path fill="none" stroke="black" d="M430.704,-141.386C386.456,-156.622 321.7,-180.163 267,-205"/>
<path fill="none" stroke="black" d="M267,-205C183.029,-243.128 108.597,-326.425 74.5866,-368.54"/>
<polygon fill="none" stroke="black" points="71.8274,-366.386 68.3326,-376.388 77.3019,-370.749 71.8274,-366.386"/>
</g>
<!-- \\DB_Util -->
<g id="node7" class="node"><title>\\DB_Util</title>
<a xlink:href="classes.db_util.html" xlink:title="«abstract»&lt;br/&gt;DB_Util" target="_parent">
<polygon fill="none" stroke="black" points="309,-655 225,-655 225,-619 309,-619 309,-655"/>
<text text-anchor="start" x="233" y="-642.433" font-family="Courier,monospace" font-size="11.00">«abstract»</text>
<text text-anchor="start" x="243" y="-629.233" font-family="Courier,monospace" font-size="11.00">DB_Util</text>
</a>
</g>
<!-- \\DB_Util&#45;&gt;\\StdClass -->
<g id="edge13" class="edge"><title>\\DB_Util&#45;&gt;\\StdClass</title>
<path fill="none" stroke="black" d="M251.066,-618.736C213.575,-575.763 119.733,-468.199 76.9164,-419.121"/>
<polygon fill="none" stroke="black" points="79.47,-416.724 70.2585,-411.49 74.1952,-421.326 79.47,-416.724"/>
</g>
<!-- \\PgSQL_SQL -->
<g id="node8" class="node"><title>\\PgSQL_SQL</title>
<a xlink:href="drivers.pgsql.pgsql_sql.html" xlink:title="PgSQL_SQL" target="_parent">
<polygon fill="none" stroke="black" points="521,-304 445,-304 445,-268 521,-268 521,-304"/>
<text text-anchor="middle" x="483" y="-282.6" font-family="Courier,monospace" font-size="11.00">PgSQL_SQL</text>
</a>
</g>
<!-- \\PgSQL_SQL&#45;&gt;\\DB_SQL -->
<g id="edge15" class="edge"><title>\\PgSQL_SQL&#45;&gt;\\DB_SQL</title>
<path fill="none" stroke="black" d="M444.479,-301.887C437.496,-305.251 430.403,-309.005 424,-313 388.9,-334.9 388.888,-353.268 352,-372 342.01,-377.073 330.75,-381.046 319.773,-384.133"/>
<polygon fill="none" stroke="black" points="318.611,-380.819 309.815,-386.725 320.375,-387.593 318.611,-380.819"/>
</g>
<!-- \\PgSQL_Util -->
<g id="node9" class="node"><title>\\PgSQL_Util</title>
<a xlink:href="drivers.pgsql.pgsql_util.html" xlink:title="PgSQL_Util" target="_parent">
<polygon fill="none" stroke="black" points="525,-574 441,-574 441,-538 525,-538 525,-574"/>
<text text-anchor="middle" x="483" y="-552.6" font-family="Courier,monospace" font-size="11.00">PgSQL_Util</text>
</a>
</g>
<!-- \\PgSQL_Util&#45;&gt;\\DB_Util -->
<g id="edge17" class="edge"><title>\\PgSQL_Util&#45;&gt;\\DB_Util</title>
<path fill="none" stroke="black" d="M440.84,-571.81C406.128,-584.827 356.742,-603.347 319.473,-617.323"/>
<polygon fill="none" stroke="black" points="317.926,-614.165 309.792,-620.953 320.384,-620.719 317.926,-614.165"/>
</g>
<!-- \\PgSQL -->
<g id="node10" class="node"><title>\\PgSQL</title>
<a xlink:href="drivers.pgsql.pgsql_driver.html" xlink:title="PgSQL" target="_parent">
<polygon fill="none" stroke="black" points="510,-844 456,-844 456,-808 510,-808 510,-844"/>
<text text-anchor="middle" x="483" y="-822.6" font-family="Courier,monospace" font-size="11.00">PgSQL</text>
</a>
</g>
<!-- \\PgSQL&#45;&gt;\\DB_PDO -->
<g id="edge19" class="edge"><title>\\PgSQL&#45;&gt;\\DB_PDO</title>
<path fill="none" stroke="black" d="M455.852,-838.1C445.798,-842.667 434.332,-847.974 424,-853 384.965,-871.988 341.105,-894.738 309.686,-911.287"/>
<polygon fill="none" stroke="black" points="307.972,-908.234 300.762,-915.997 311.24,-914.425 307.972,-908.234"/>
</g>
<!-- \\ODBC_Util -->
<g id="node11" class="node"><title>\\ODBC_Util</title>
<a xlink:href="drivers.odbc.odbc_util.html" xlink:title="ODBC_Util" target="_parent">
<polygon fill="none" stroke="black" points="521,-790 445,-790 445,-754 521,-754 521,-790"/>
<text text-anchor="middle" x="483" y="-768.6" font-family="Courier,monospace" font-size="11.00">ODBC_Util</text>
</a>
</g>
<!-- \\ODBC_Util&#45;&gt;\\DB_Util -->
<g id="edge21" class="edge"><title>\\ODBC_Util&#45;&gt;\\DB_Util</title>
<path fill="none" stroke="black" d="M444.43,-755.519C437.521,-752.238 430.467,-748.667 424,-745 378.756,-719.342 329.869,-684.466 298.878,-661.371"/>
<polygon fill="none" stroke="black" points="300.731,-658.385 290.63,-655.186 296.531,-663.985 300.731,-658.385"/>
</g>
<!-- \\ODBC_SQL -->
<g id="node12" class="node"><title>\\ODBC_SQL</title>
<a xlink:href="drivers.odbc.odbc_sql.html" xlink:title="ODBC_SQL" target="_parent">
<polygon fill="none" stroke="black" points="518,-520 448,-520 448,-484 518,-484 518,-520"/>
<text text-anchor="middle" x="483" y="-498.6" font-family="Courier,monospace" font-size="11.00">ODBC_SQL</text>
</a>
</g>
<!-- \\ODBC_SQL&#45;&gt;\\DB_SQL -->
<g id="edge23" class="edge"><title>\\ODBC_SQL&#45;&gt;\\DB_SQL</title>
<path fill="none" stroke="black" d="M447.931,-486.28C440.026,-482.646 431.699,-478.745 424,-475 384.965,-456.012 341.105,-433.262 309.686,-416.713"/>
<polygon fill="none" stroke="black" points="311.24,-413.575 300.762,-412.003 307.972,-419.766 311.24,-413.575"/>
</g>
<!-- \\ODBC -->
<g id="node13" class="node"><title>\\ODBC</title>
<a xlink:href="drivers.odbc.odbc_driver.html" xlink:title="ODBC" target="_parent">
<polygon fill="none" stroke="black" points="510,-1060 456,-1060 456,-1024 510,-1024 510,-1060"/>
<text text-anchor="middle" x="483" y="-1038.6" font-family="Courier,monospace" font-size="11.00">ODBC</text>
</a>
</g>
<!-- \\ODBC&#45;&gt;\\DB_PDO -->
<g id="edge25" class="edge"><title>\\ODBC&#45;&gt;\\DB_PDO</title>
<path fill="none" stroke="black" d="M455.852,-1029.9C445.798,-1025.33 434.332,-1020.03 424,-1015 384.965,-996.012 341.105,-973.262 309.686,-956.713"/>
<polygon fill="none" stroke="black" points="311.24,-953.575 300.762,-952.003 307.972,-959.766 311.24,-953.575"/>
</g>
<!-- \\MySQL_Util -->
<g id="node14" class="node"><title>\\MySQL_Util</title>
<a xlink:href="drivers.mysql.mysql_util.html" xlink:title="MySQL_Util" target="_parent">
<polygon fill="none" stroke="black" points="525,-736 441,-736 441,-700 525,-700 525,-736"/>
<text text-anchor="middle" x="483" y="-714.6" font-family="Courier,monospace" font-size="11.00">MySQL_Util</text>
</a>
</g>
<!-- \\MySQL_Util&#45;&gt;\\DB_Util -->
<g id="edge27" class="edge"><title>\\MySQL_Util&#45;&gt;\\DB_Util</title>
<path fill="none" stroke="black" d="M440.325,-701.997C405.564,-688.961 356.34,-670.502 319.226,-656.585"/>
<polygon fill="none" stroke="black" points="320.178,-653.204 309.586,-652.97 317.72,-659.758 320.178,-653.204"/>
</g>
<!-- \\MySQL -->
<g id="node15" class="node"><title>\\MySQL</title>
<a xlink:href="drivers.mysql.mysql_driver.html" xlink:title="MySQL" target="_parent">
<polygon fill="none" stroke="black" points="510,-1006 456,-1006 456,-970 510,-970 510,-1006"/>
<text text-anchor="middle" x="483" y="-984.6" font-family="Courier,monospace" font-size="11.00">MySQL</text>
</a>
</g>
<!-- \\MySQL&#45;&gt;\\DB_PDO -->
<g id="edge29" class="edge"><title>\\MySQL&#45;&gt;\\DB_PDO</title>
<path fill="none" stroke="black" d="M455.643,-981.161C421.521,-972.63 362.445,-957.861 319.476,-947.119"/>
<polygon fill="none" stroke="black" points="320.298,-943.717 309.747,-944.687 318.6,-950.508 320.298,-943.717"/>
</g>
<!-- \\MySQL_SQL -->
<g id="node16" class="node"><title>\\MySQL_SQL</title>
<a xlink:href="drivers.mysql.mysql_sql.html" xlink:title="MySQL_SQL" target="_parent">
<polygon fill="none" stroke="black" points="522,-466 444,-466 444,-430 522,-430 522,-466"/>
<text text-anchor="middle" x="483" y="-444.6" font-family="Courier,monospace" font-size="11.00">MySQL_SQL</text>
</a>
</g>
<!-- \\MySQL_SQL&#45;&gt;\\DB_SQL -->
<g id="edge31" class="edge"><title>\\MySQL_SQL&#45;&gt;\\DB_SQL</title>
<path fill="none" stroke="black" d="M443.884,-438.221C409.065,-429.516 357.851,-416.713 319.48,-407.12"/>
<polygon fill="none" stroke="black" points="320.072,-403.66 309.522,-404.63 318.374,-410.451 320.072,-403.66"/>
</g>
<!-- \\SQLite_Util -->
<g id="node17" class="node"><title>\\SQLite_Util</title>
<a xlink:href="drivers.sqlite.sqlite_util.html" xlink:title="SQLite_Util" target="_parent">
<polygon fill="none" stroke="black" points="528,-682 438,-682 438,-646 528,-646 528,-682"/>
<text text-anchor="middle" x="483" y="-660.6" font-family="Courier,monospace" font-size="11.00">SQLite_Util</text>
</a>
</g>
<!-- \\SQLite_Util&#45;&gt;\\DB_Util -->
<g id="edge33" class="edge"><title>\\SQLite_Util&#45;&gt;\\DB_Util</title>
<path fill="none" stroke="black" d="M437.456,-658.307C403.097,-654.012 355.888,-648.111 319.863,-643.608"/>
<polygon fill="none" stroke="black" points="319.902,-640.086 309.545,-642.318 319.034,-647.032 319.902,-640.086"/>
</g>
<!-- \\SQLite -->
<g id="node18" class="node"><title>\\SQLite</title>
<a xlink:href="drivers.sqlite.sqlite_driver.html" xlink:title="SQLite" target="_parent">
<polygon fill="none" stroke="black" points="511,-952 455,-952 455,-916 511,-916 511,-952"/>
<text text-anchor="middle" x="483" y="-930.6" font-family="Courier,monospace" font-size="11.00">SQLite</text>
</a>
</g>
<!-- \\SQLite&#45;&gt;\\DB_PDO -->
<g id="edge35" class="edge"><title>\\SQLite&#45;&gt;\\DB_PDO</title>
<path fill="none" stroke="black" d="M454.317,-934C420.073,-934 362.12,-934 319.724,-934"/>
<polygon fill="none" stroke="black" points="319.577,-930.5 309.577,-934 319.577,-937.5 319.577,-930.5"/>
</g>
<!-- \\SQLite_SQL -->
<g id="node19" class="node"><title>\\SQLite_SQL</title>
<a xlink:href="drivers.sqlite.sqlite_sql.html" xlink:title="SQLite_SQL" target="_parent">
<polygon fill="none" stroke="black" points="525,-412 441,-412 441,-376 525,-376 525,-412"/>
<text text-anchor="middle" x="483" y="-390.6" font-family="Courier,monospace" font-size="11.00">SQLite_SQL</text>
</a>
</g>
<!-- \\SQLite_SQL&#45;&gt;\\DB_SQL -->
<g id="edge37" class="edge"><title>\\SQLite_SQL&#45;&gt;\\DB_SQL</title>
<path fill="none" stroke="black" d="M440.84,-394C406.276,-394 357.162,-394 319.95,-394"/>
<polygon fill="none" stroke="black" points="319.792,-390.5 309.792,-394 319.792,-397.5 319.792,-390.5"/>
</g>
<!-- \\Firebird_SQL -->
<g id="node20" class="node"><title>\\Firebird_SQL</title>
<a xlink:href="drivers.firebird.firebird_sql.html" xlink:title="Firebird_SQL" target="_parent">
<polygon fill="none" stroke="black" points="531,-358 435,-358 435,-322 531,-322 531,-358"/>
<text text-anchor="middle" x="483" y="-336.6" font-family="Courier,monospace" font-size="11.00">Firebird_SQL</text>
</a>
</g>
<!-- \\Firebird_SQL&#45;&gt;\\DB_SQL -->
<g id="edge39" class="edge"><title>\\Firebird_SQL&#45;&gt;\\DB_SQL</title>
<path fill="none" stroke="black" d="M434.256,-352.186C400.168,-360.708 354.673,-372.082 319.738,-380.815"/>
<polygon fill="none" stroke="black" points="318.575,-377.498 309.723,-383.319 320.273,-384.289 318.575,-377.498"/>
</g>
<!-- \\Firebird_Result -->
<g id="node21" class="node"><title>\\Firebird_Result</title>
<a xlink:href="drivers.firebird.firebird_result.html" xlink:title="Firebird_Result" target="_parent">
<polygon fill="none" stroke="black" points="541,-88 425,-88 425,-52 541,-52 541,-88"/>
<text text-anchor="middle" x="483" y="-66.6" font-family="Courier,monospace" font-size="11.00">Firebird_Result</text>
</a>
</g>
<!-- \\PDOStatement -->
<g id="node46" class="node"><title>\\PDOStatement</title>
<ellipse fill="none" stroke="black" cx="267" cy="-18" rx="85.1942" ry="18"/>
<text text-anchor="middle" x="267" y="-13.4" font-family="Times Roman,serif" font-size="14.00" fill="gray">\PDOStatement</text>
</g>
<!-- \\Firebird_Result&#45;&gt;\\PDOStatement -->
<g id="edge41" class="edge"><title>\\Firebird_Result&#45;&gt;\\PDOStatement</title>
<path fill="none" stroke="black" d="M424.262,-55.8595C396.213,-49.1069 362.522,-40.996 333.531,-34.0167"/>
<polygon fill="none" stroke="black" points="334.031,-30.5372 323.49,-31.5994 332.393,-37.3428 334.031,-30.5372"/>
</g>
<!-- \\Firebird -->
<g id="node22" class="node"><title>\\Firebird</title>
<a xlink:href="drivers.firebird.firebird_driver.html" xlink:title="Firebird" target="_parent">
<polygon fill="none" stroke="black" points="518,-898 448,-898 448,-862 518,-862 518,-898"/>
<text text-anchor="middle" x="483" y="-876.6" font-family="Courier,monospace" font-size="11.00">Firebird</text>
</a>
</g>
<!-- \\Firebird&#45;&gt;\\DB_PDO -->
<g id="edge43" class="edge"><title>\\Firebird&#45;&gt;\\DB_PDO</title>
<path fill="none" stroke="black" d="M447.815,-888.796C412.991,-897.502 359.26,-910.935 319.41,-920.897"/>
<polygon fill="none" stroke="black" points="318.451,-917.53 309.598,-923.35 320.148,-924.321 318.451,-917.53"/>
</g>
<!-- \\Firebird_Util -->
<g id="node23" class="node"><title>\\Firebird_Util</title>
<a xlink:href="drivers.firebird.firebird_util.html" xlink:title="Firebird_Util" target="_parent">
<polygon fill="none" stroke="black" points="535,-628 431,-628 431,-592 535,-592 535,-628"/>
<text text-anchor="middle" x="483" y="-606.6" font-family="Courier,monospace" font-size="11.00">Firebird_Util</text>
</a>
</g>
<!-- \\Firebird_Util&#45;&gt;\\DB_Util -->
<g id="edge45" class="edge"><title>\\Firebird_Util&#45;&gt;\\DB_Util</title>
<path fill="none" stroke="black" d="M430.988,-616.502C397.275,-620.716 353.502,-626.187 319.662,-630.417"/>
<polygon fill="none" stroke="black" points="318.989,-626.974 309.5,-631.687 319.857,-633.92 318.989,-626.974"/>
</g>
</g>
</svg>
