<?xml version="1.0" encoding="UTF-8" standalone="no"?>
<!DOCTYPE svg PUBLIC "-//W3C//DTD SVG 1.1//EN"
 "http://www.w3.org/Graphics/SVG/1.1/DTD/svg11.dtd">
<!-- Generated by graphviz version 2.26.3 (20100126.1600)
 -->
<!-- Title: G Pages: 1 -->
<svg width="528pt" height="1084pt"
 viewBox="0.00 0.00 528.00 1084.00" xmlns="http://www.w3.org/2000/svg" xmlns:xlink="http://www.w3.org/1999/xlink">
<g id="graph1" class="graph" transform="scale(1 1) rotate(0) translate(4 1080)">
<title>G</title>
<polygon fill="white" stroke="white" points="-4,5 -4,-1080 525,-1080 525,5 -4,5"/>
<g id="graph2" class="cluster"><title>cluster_default</title>
<polyline fill="none" stroke="none" points="190,-44 500,-44 "/>
<path fill="none" stroke="none" d="M500,-44C506,-44 512,-50 512,-56"/>
<polyline fill="none" stroke="none" points="512,-56 512,-1056 "/>
<path fill="none" stroke="none" d="M512,-1056C512,-1062 506,-1068 500,-1068"/>
<polyline fill="none" stroke="none" points="500,-1068 190,-1068 "/>
<path fill="none" stroke="none" d="M190,-1068C184,-1068 178,-1062 178,-1056"/>
<polyline fill="none" stroke="none" points="178,-1056 178,-56 "/>
<path fill="none" stroke="none" d="M178,-56C178,-50 184,-44 190,-44"/>
</g>
<!-- \\DB_Reg -->
<g id="node2" class="node"><title>\\DB_Reg</title>
<a xlink:href="classes.db_reg.html" xlink:title="DB_Reg" target="_parent">
<polygon fill="none" stroke="black" points="473,-1060 417,-1060 417,-1024 473,-1024 473,-1060"/>
<text text-anchor="middle" x="445" y="-1038.6" font-family="Courier,monospace" font-size="11.00">DB_Reg</text>
</a>
</g>
<!-- \\Settings -->
<g id="node3" class="node"><title>\\Settings</title>
<a xlink:href="classes.settings.html" xlink:title="Settings" target="_parent">
<polygon fill="none" stroke="black" points="480,-1006 410,-1006 410,-970 480,-970 480,-1006"/>
<text text-anchor="middle" x="445" y="-984.6" font-family="Courier,monospace" font-size="11.00">Settings</text>
</a>
</g>
<!-- \\DB_SQL -->
<g id="node4" class="node"><title>\\DB_SQL</title>
<a xlink:href="classes.db_sql.html" xlink:title="«abstract»&lt;br/&gt;DB_SQL" target="_parent">
<polygon fill="none" stroke="black" points="271,-520 187,-520 187,-484 271,-484 271,-520"/>
<text text-anchor="start" x="195" y="-507.433" font-family="Courier,monospace" font-size="11.00">«abstract»</text>
<text text-anchor="start" x="208.5" y="-494.233" font-family="Courier,monospace" font-size="11.00">DB_SQL</text>
</a>
</g>
<!-- \\DB_PDO -->
<g id="node5" class="node"><title>\\DB_PDO</title>
<a xlink:href="classes.db_pdo.html" xlink:title="«abstract»&lt;br/&gt;DB_PDO" target="_parent">
<polygon fill="none" stroke="black" points="271,-250 187,-250 187,-214 271,-214 271,-250"/>
<text text-anchor="start" x="195" y="-237.433" font-family="Courier,monospace" font-size="11.00">«abstract»</text>
<text text-anchor="start" x="208.5" y="-224.233" font-family="Courier,monospace" font-size="11.00">DB_PDO</text>
</a>
</g>
<!-- \\PDO -->
<g id="node25" class="node"><title>\\PDO</title>
<ellipse fill="none" stroke="black" cx="36" cy="-232" rx="35.0527" ry="18"/>
<text text-anchor="middle" x="36" y="-227.4" font-family="Times Roman,serif" font-size="14.00" fill="gray">\PDO</text>
</g>
<!-- \\DB_PDO&#45;&gt;\\PDO -->
<g id="edge3" class="edge"><title>\\DB_PDO&#45;&gt;\\PDO</title>
<path fill="none" stroke="black" d="M186.167,-232C155.237,-232 113.521,-232 81.907,-232"/>
<polygon fill="none" stroke="black" points="81.603,-228.5 71.603,-232 81.603,-235.5 81.603,-228.5"/>
</g>
<!-- \\Query_Builder -->
<g id="node6" class="node"><title>\\Query_Builder</title>
<a xlink:href="classes.query_builder.html" xlink:title="Query_Builder" target="_parent">
<polygon fill="none" stroke="black" points="497,-952 393,-952 393,-916 497,-916 497,-952"/>
<text text-anchor="middle" x="445" y="-930.6" font-family="Courier,monospace" font-size="11.00">Query_Builder</text>
</a>
</g>
<!-- \\DB_Util -->
<g id="node7" class="node"><title>\\DB_Util</title>
<a xlink:href="classes.db_util.html" xlink:title="«abstract»&lt;br/&gt;DB_Util" target="_parent">
<polygon fill="none" stroke="black" points="271,-790 187,-790 187,-754 271,-754 271,-790"/>
<text text-anchor="start" x="195" y="-777.433" font-family="Courier,monospace" font-size="11.00">«abstract»</text>
<text text-anchor="start" x="205" y="-764.233" font-family="Courier,monospace" font-size="11.00">DB_Util</text>
</a>
</g>
<!-- \\PgSQL_SQL -->
<g id="node8" class="node"><title>\\PgSQL_SQL</title>
<a xlink:href="drivers.pgsql.pgsql_sql.html" xlink:title="PgSQL_SQL" target="_parent">
<polygon fill="none" stroke="black" points="483,-628 407,-628 407,-592 483,-592 483,-628"/>
<text text-anchor="middle" x="445" y="-606.6" font-family="Courier,monospace" font-size="11.00">PgSQL_SQL</text>
</a>
</g>
<!-- \\PgSQL_SQL&#45;&gt;\\DB_SQL -->
<g id="edge5" class="edge"><title>\\PgSQL_SQL&#45;&gt;\\DB_SQL</title>
<path fill="none" stroke="black" d="M406.475,-592.687C399.629,-589.52 392.584,-586.203 386,-583 346.965,-564.012 303.105,-541.262 271.686,-524.713"/>
<polygon fill="none" stroke="black" points="273.24,-521.575 262.762,-520.003 269.972,-527.766 273.24,-521.575"/>
</g>
<!-- \\PgSQL_Util -->
<g id="node9" class="node"><title>\\PgSQL_Util</title>
<a xlink:href="drivers.pgsql.pgsql_util.html" xlink:title="PgSQL_Util" target="_parent">
<polygon fill="none" stroke="black" points="487,-898 403,-898 403,-862 487,-862 487,-898"/>
<text text-anchor="middle" x="445" y="-876.6" font-family="Courier,monospace" font-size="11.00">PgSQL_Util</text>
</a>
</g>
<!-- \\PgSQL_Util&#45;&gt;\\DB_Util -->
<g id="edge7" class="edge"><title>\\PgSQL_Util&#45;&gt;\\DB_Util</title>
<path fill="none" stroke="black" d="M404.892,-861.953C398.548,-859.01 392.078,-855.957 386,-853 346.965,-834.012 303.105,-811.262 271.686,-794.713"/>
<polygon fill="none" stroke="black" points="273.24,-791.575 262.762,-790.003 269.972,-797.766 273.24,-791.575"/>
</g>
<!-- \\PgSQL -->
<g id="node10" class="node"><title>\\PgSQL</title>
<a xlink:href="drivers.pgsql.pgsql_driver.html" xlink:title="PgSQL" target="_parent">
<polygon fill="none" stroke="black" points="472,-358 418,-358 418,-322 472,-322 472,-358"/>
<text text-anchor="middle" x="445" y="-336.6" font-family="Courier,monospace" font-size="11.00">PgSQL</text>
</a>
</g>
<!-- \\PgSQL&#45;&gt;\\DB_PDO -->
<g id="edge9" class="edge"><title>\\PgSQL&#45;&gt;\\DB_PDO</title>
<path fill="none" stroke="black" d="M417.852,-327.9C407.798,-323.333 396.332,-318.026 386,-313 346.965,-294.012 303.105,-271.262 271.686,-254.713"/>
<polygon fill="none" stroke="black" points="273.24,-251.575 262.762,-250.003 269.972,-257.766 273.24,-251.575"/>
</g>
<!-- \\ODBC_Util -->
<g id="node11" class="node"><title>\\ODBC_Util</title>
<a xlink:href="drivers.odbc.odbc_util.html" xlink:title="ODBC_Util" target="_parent">
<polygon fill="none" stroke="black" points="483,-844 407,-844 407,-808 483,-808 483,-844"/>
<text text-anchor="middle" x="445" y="-822.6" font-family="Courier,monospace" font-size="11.00">ODBC_Util</text>
</a>
</g>
<!-- \\ODBC_Util&#45;&gt;\\DB_Util -->
<g id="edge11" class="edge"><title>\\ODBC_Util&#45;&gt;\\DB_Util</title>
<path fill="none" stroke="black" d="M406.384,-816.346C371.629,-807.657 320.251,-794.813 281.723,-785.181"/>
<polygon fill="none" stroke="black" points="282.273,-781.711 271.723,-782.681 280.576,-788.502 282.273,-781.711"/>
</g>
<!-- \\ODBC_SQL -->
<g id="node12" class="node"><title>\\ODBC_SQL</title>
<a xlink:href="drivers.odbc.odbc_sql.html" xlink:title="ODBC_SQL" target="_parent">
<polygon fill="none" stroke="black" points="480,-574 410,-574 410,-538 480,-538 480,-574"/>
<text text-anchor="middle" x="445" y="-552.6" font-family="Courier,monospace" font-size="11.00">ODBC_SQL</text>
</a>
</g>
<!-- \\ODBC_SQL&#45;&gt;\\DB_SQL -->
<g id="edge13" class="edge"><title>\\ODBC_SQL&#45;&gt;\\DB_SQL</title>
<path fill="none" stroke="black" d="M409.815,-547.204C374.991,-538.498 321.26,-525.065 281.41,-515.103"/>
<polygon fill="none" stroke="black" points="282.148,-511.679 271.598,-512.65 280.451,-518.47 282.148,-511.679"/>
</g>
<!-- \\ODBC -->
<g id="node13" class="node"><title>\\ODBC</title>
<a xlink:href="drivers.odbc.odbc_driver.html" xlink:title="ODBC" target="_parent">
<polygon fill="none" stroke="black" points="472,-304 418,-304 418,-268 472,-268 472,-304"/>
<text text-anchor="middle" x="445" y="-282.6" font-family="Courier,monospace" font-size="11.00">ODBC</text>
</a>
</g>
<!-- \\ODBC&#45;&gt;\\DB_PDO -->
<g id="edge15" class="edge"><title>\\ODBC&#45;&gt;\\DB_PDO</title>
<path fill="none" stroke="black" d="M417.643,-279.161C383.521,-270.63 324.445,-255.861 281.476,-245.119"/>
<polygon fill="none" stroke="black" points="282.298,-241.717 271.747,-242.687 280.6,-248.508 282.298,-241.717"/>
</g>
<!-- \\MySQL_Util -->
<g id="node14" class="node"><title>\\MySQL_Util</title>
<a xlink:href="drivers.mysql.mysql_util.html" xlink:title="MySQL_Util" target="_parent">
<polygon fill="none" stroke="black" points="487,-790 403,-790 403,-754 487,-754 487,-790"/>
<text text-anchor="middle" x="445" y="-768.6" font-family="Courier,monospace" font-size="11.00">MySQL_Util</text>
</a>
</g>
<!-- \\MySQL_Util&#45;&gt;\\DB_Util -->
<g id="edge17" class="edge"><title>\\MySQL_Util&#45;&gt;\\DB_Util</title>
<path fill="none" stroke="black" d="M402.325,-772C367.712,-772 318.759,-772 281.701,-772"/>
<polygon fill="none" stroke="black" points="281.586,-768.5 271.586,-772 281.586,-775.5 281.586,-768.5"/>
</g>
<!-- \\MySQL -->
<g id="node15" class="node"><title>\\MySQL</title>
<a xlink:href="drivers.mysql.mysql_driver.html" xlink:title="MySQL" target="_parent">
<polygon fill="none" stroke="black" points="472,-250 418,-250 418,-214 472,-214 472,-250"/>
<text text-anchor="middle" x="445" y="-228.6" font-family="Courier,monospace" font-size="11.00">MySQL</text>
</a>
</g>
<!-- \\MySQL&#45;&gt;\\DB_PDO -->
<g id="edge19" class="edge"><title>\\MySQL&#45;&gt;\\DB_PDO</title>
<path fill="none" stroke="black" d="M417.643,-232C383.593,-232 324.693,-232 281.747,-232"/>
<polygon fill="none" stroke="black" points="281.747,-228.5 271.747,-232 281.747,-235.5 281.747,-228.5"/>
</g>
<!-- \\MySQL_SQL -->
<g id="node16" class="node"><title>\\MySQL_SQL</title>
<a xlink:href="drivers.mysql.mysql_sql.html" xlink:title="MySQL_SQL" target="_parent">
<polygon fill="none" stroke="black" points="484,-520 406,-520 406,-484 484,-484 484,-520"/>
<text text-anchor="middle" x="445" y="-498.6" font-family="Courier,monospace" font-size="11.00">MySQL_SQL</text>
</a>
</g>
<!-- \\MySQL_SQL&#45;&gt;\\DB_SQL -->
<g id="edge21" class="edge"><title>\\MySQL_SQL&#45;&gt;\\DB_SQL</title>
<path fill="none" stroke="black" d="M405.884,-502C371.213,-502 320.287,-502 281.97,-502"/>
<polygon fill="none" stroke="black" points="281.522,-498.5 271.522,-502 281.522,-505.5 281.522,-498.5"/>
</g>
<!-- \\SQLite_Util -->
<g id="node17" class="node"><title>\\SQLite_Util</title>
<a xlink:href="drivers.sqlite.sqlite_util.html" xlink:title="SQLite_Util" target="_parent">
<polygon fill="none" stroke="black" points="490,-736 400,-736 400,-700 490,-700 490,-736"/>
<text text-anchor="middle" x="445" y="-714.6" font-family="Courier,monospace" font-size="11.00">SQLite_Util</text>
</a>
</g>
<!-- \\SQLite_Util&#45;&gt;\\DB_Util -->
<g id="edge23" class="edge"><title>\\SQLite_Util&#45;&gt;\\DB_Util</title>
<path fill="none" stroke="black" d="M399.456,-729.386C364.949,-738.013 317.482,-749.879 281.4,-758.9"/>
<polygon fill="none" stroke="black" points="280.398,-755.543 271.545,-761.364 282.096,-762.334 280.398,-755.543"/>
</g>
<!-- \\SQLite -->
<g id="node18" class="node"><title>\\SQLite</title>
<a xlink:href="drivers.sqlite.sqlite_driver.html" xlink:title="SQLite" target="_parent">
<polygon fill="none" stroke="black" points="473,-196 417,-196 417,-160 473,-160 473,-196"/>
<text text-anchor="middle" x="445" y="-174.6" font-family="Courier,monospace" font-size="11.00">SQLite</text>
</a>
</g>
<!-- \\SQLite&#45;&gt;\\DB_PDO -->
<g id="edge25" class="edge"><title>\\SQLite&#45;&gt;\\DB_PDO</title>
<path fill="none" stroke="black" d="M416.317,-185.171C382.001,-193.75 323.875,-208.281 281.456,-218.886"/>
<polygon fill="none" stroke="black" points="280.429,-215.535 271.577,-221.356 282.127,-222.326 280.429,-215.535"/>
</g>
<!-- \\SQLite_SQL -->
<g id="node19" class="node"><title>\\SQLite_SQL</title>
<a xlink:href="drivers.sqlite.sqlite_sql.html" xlink:title="SQLite_SQL" target="_parent">
<polygon fill="none" stroke="black" points="487,-466 403,-466 403,-430 487,-430 487,-466"/>
<text text-anchor="middle" x="445" y="-444.6" font-family="Courier,monospace" font-size="11.00">SQLite_SQL</text>
</a>
</g>
<!-- \\SQLite_SQL&#45;&gt;\\DB_SQL -->
<g id="edge27" class="edge"><title>\\SQLite_SQL&#45;&gt;\\DB_SQL</title>
<path fill="none" stroke="black" d="M402.84,-458.54C368.276,-467.181 319.162,-479.46 281.95,-488.763"/>
<polygon fill="none" stroke="black" points="280.644,-485.481 271.792,-491.302 282.342,-492.272 280.644,-485.481"/>
</g>
<!-- \\Firebird_SQL -->
<g id="node20" class="node"><title>\\Firebird_SQL</title>
<a xlink:href="drivers.firebird.firebird_sql.html" xlink:title="Firebird_SQL" target="_parent">
<polygon fill="none" stroke="black" points="493,-412 397,-412 397,-376 493,-376 493,-412"/>
<text text-anchor="middle" x="445" y="-390.6" font-family="Courier,monospace" font-size="11.00">Firebird_SQL</text>
</a>
</g>
<!-- \\Firebird_SQL&#45;&gt;\\DB_SQL -->
<g id="edge29" class="edge"><title>\\Firebird_SQL&#45;&gt;\\DB_SQL</title>
<path fill="none" stroke="black" d="M404.892,-412.047C398.548,-414.99 392.078,-418.043 386,-421 346.965,-439.988 303.105,-462.738 271.686,-479.287"/>
<polygon fill="none" stroke="black" points="269.972,-476.234 262.762,-483.997 273.24,-482.425 269.972,-476.234"/>
</g>
<!-- \\Firebird_Result -->
<g id="node21" class="node"><title>\\Firebird_Result</title>
<a xlink:href="drivers.firebird.firebird_result.html" xlink:title="Firebird_Result" target="_parent">
<polygon fill="none" stroke="black" points="503,-88 387,-88 387,-52 503,-52 503,-88"/>
<text text-anchor="middle" x="445" y="-66.6" font-family="Courier,monospace" font-size="11.00">Firebird_Result</text>
</a>
</g>
<!-- \\PDOStatement -->
<g id="node40" class="node"><title>\\PDOStatement</title>
<ellipse fill="none" stroke="black" cx="229" cy="-18" rx="85.1942" ry="18"/>
<text text-anchor="middle" x="229" y="-13.4" font-family="Times Roman,serif" font-size="14.00" fill="gray">\PDOStatement</text>
</g>
<!-- \\Firebird_Result&#45;&gt;\\PDOStatement -->
<g id="edge31" class="edge"><title>\\Firebird_Result&#45;&gt;\\PDOStatement</title>
<path fill="none" stroke="black" d="M386.262,-55.8595C358.213,-49.1069 324.522,-40.996 295.531,-34.0167"/>
<polygon fill="none" stroke="black" points="296.031,-30.5372 285.49,-31.5994 294.393,-37.3428 296.031,-30.5372"/>
</g>
<!-- \\Firebird -->
<g id="node22" class="node"><title>\\Firebird</title>
<a xlink:href="drivers.firebird.firebird_driver.html" xlink:title="Firebird" target="_parent">
<polygon fill="none" stroke="black" points="480,-142 410,-142 410,-106 480,-106 480,-142"/>
<text text-anchor="middle" x="445" y="-120.6" font-family="Courier,monospace" font-size="11.00">Firebird</text>
</a>
</g>
<!-- \\Firebird&#45;&gt;\\DB_PDO -->
<g id="edge33" class="edge"><title>\\Firebird&#45;&gt;\\DB_PDO</title>
<path fill="none" stroke="black" d="M409.906,-138.262C401.844,-142.026 393.454,-146.349 386,-151 350.9,-172.9 350.888,-191.268 314,-210 304.01,-215.073 292.75,-219.046 281.773,-222.133"/>
<polygon fill="none" stroke="black" points="280.611,-218.819 271.815,-224.725 282.375,-225.593 280.611,-218.819"/>
</g>
<!-- \\Firebird_Util -->
<g id="node23" class="node"><title>\\Firebird_Util</title>
<a xlink:href="drivers.firebird.firebird_util.html" xlink:title="Firebird_Util" target="_parent">
<polygon fill="none" stroke="black" points="497,-682 393,-682 393,-646 497,-646 497,-682"/>
<text text-anchor="middle" x="445" y="-660.6" font-family="Courier,monospace" font-size="11.00">Firebird_Util</text>
</a>
</g>
<!-- \\Firebird_Util&#45;&gt;\\DB_Util -->
<g id="edge35" class="edge"><title>\\Firebird_Util&#45;&gt;\\DB_Util</title>
<path fill="none" stroke="black" d="M404.892,-682.047C398.548,-684.99 392.078,-688.043 386,-691 346.965,-709.988 303.105,-732.738 271.686,-749.287"/>
<polygon fill="none" stroke="black" points="269.972,-746.234 262.762,-753.997 273.24,-752.425 269.972,-746.234"/>
</g>
</g>
</svg>
