<?xml version="1.0" encoding="UTF-8" standalone="no"?>
<!DOCTYPE svg PUBLIC "-//W3C//DTD SVG 1.1//EN"
 "http://www.w3.org/Graphics/SVG/1.1/DTD/svg11.dtd">
<!-- Generated by graphviz version 2.26.3 (20100126.1600)
 -->
<!-- Title: G Pages: 1 -->
<svg width="528pt" height="1138pt"
 viewBox="0.00 0.00 528.00 1138.00" xmlns="http://www.w3.org/2000/svg" xmlns:xlink="http://www.w3.org/1999/xlink">
<g id="graph1" class="graph" transform="scale(1 1) rotate(0) translate(4 1134)">
<title>G</title>
<polygon fill="white" stroke="white" points="-4,5 -4,-1134 525,-1134 525,5 -4,5"/>
<g id="graph2" class="cluster"><title>cluster_default</title>
<polyline fill="none" stroke="none" points="190,-98 500,-98 "/>
<path fill="none" stroke="none" d="M500,-98C506,-98 512,-104 512,-110"/>
<polyline fill="none" stroke="none" points="512,-110 512,-1110 "/>
<path fill="none" stroke="none" d="M512,-1110C512,-1116 506,-1122 500,-1122"/>
<polyline fill="none" stroke="none" points="500,-1122 190,-1122 "/>
<path fill="none" stroke="none" d="M190,-1122C184,-1122 178,-1116 178,-1110"/>
<polyline fill="none" stroke="none" points="178,-1110 178,-110 "/>
<path fill="none" stroke="none" d="M178,-110C178,-104 184,-98 190,-98"/>
</g>
<!-- \\DB_Reg -->
<g id="node2" class="node"><title>\\DB_Reg</title>
<a xlink:href="classes.db_reg.html" xlink:title="DB_Reg" target="_parent">
<polygon fill="none" stroke="black" points="473,-1114 417,-1114 417,-1078 473,-1078 473,-1114"/>
<text text-anchor="middle" x="445" y="-1092.6" font-family="Courier,monospace" font-size="11.00">DB_Reg</text>
</a>
</g>
<!-- \\Settings -->
<g id="node3" class="node"><title>\\Settings</title>
<a xlink:href="classes.settings.html" xlink:title="Settings" target="_parent">
<polygon fill="none" stroke="black" points="480,-1060 410,-1060 410,-1024 480,-1024 480,-1060"/>
<text text-anchor="middle" x="445" y="-1038.6" font-family="Courier,monospace" font-size="11.00">Settings</text>
</a>
</g>
<!-- \\DB_SQL -->
<g id="node4" class="node"><title>\\DB_SQL</title>
<a xlink:href="classes.db_sql.html" xlink:title="«abstract»&lt;br/&gt;DB_SQL" target="_parent">
<polygon fill="none" stroke="black" points="271,-628 187,-628 187,-592 271,-592 271,-628"/>
<text text-anchor="start" x="195" y="-615.433" font-family="Courier,monospace" font-size="11.00">«abstract»</text>
<text text-anchor="start" x="208.5" y="-602.233" font-family="Courier,monospace" font-size="11.00">DB_SQL</text>
</a>
</g>
<!-- \\DB_PDO -->
<g id="node5" class="node"><title>\\DB_PDO</title>
<a xlink:href="classes.db_pdo.html" xlink:title="«abstract»&lt;br/&gt;DB_PDO" target="_parent">
<polygon fill="none" stroke="black" points="271,-358 187,-358 187,-322 271,-322 271,-358"/>
<text text-anchor="start" x="195" y="-345.433" font-family="Courier,monospace" font-size="11.00">«abstract»</text>
<text text-anchor="start" x="208.5" y="-332.233" font-family="Courier,monospace" font-size="11.00">DB_PDO</text>
</a>
</g>
<!-- \\PDO -->
<g id="node25" class="node"><title>\\PDO</title>
<ellipse fill="none" stroke="black" cx="36" cy="-340" rx="35.0527" ry="18"/>
<text text-anchor="middle" x="36" y="-335.4" font-family="Times Roman,serif" font-size="14.00" fill="gray">\PDO</text>
</g>
<!-- \\DB_PDO&#45;&gt;\\PDO -->
<g id="edge3" class="edge"><title>\\DB_PDO&#45;&gt;\\PDO</title>
<path fill="none" stroke="black" d="M186.167,-340C155.237,-340 113.521,-340 81.907,-340"/>
<polygon fill="none" stroke="black" points="81.603,-336.5 71.603,-340 81.603,-343.5 81.603,-336.5"/>
</g>
<!-- \\Query_Builder -->
<g id="node6" class="node"><title>\\Query_Builder</title>
<a xlink:href="classes.query_builder.html" xlink:title="Query_Builder" target="_parent">
<polygon fill="none" stroke="black" points="497,-196 393,-196 393,-160 497,-160 497,-196"/>
<text text-anchor="middle" x="445" y="-174.6" font-family="Courier,monospace" font-size="11.00">Query_Builder</text>
</a>
</g>
<!-- \\StdClass -->
<g id="node27" class="node"><title>\\StdClass</title>
<ellipse fill="none" stroke="black" cx="229" cy="-72" rx="55.0073" ry="18"/>
<text text-anchor="middle" x="229" y="-67.4" font-family="Times Roman,serif" font-size="14.00" fill="gray">\StdClass</text>
</g>
<!-- \\Query_Builder&#45;&gt;\\StdClass -->
<g id="edge5" class="edge"><title>\\Query_Builder&#45;&gt;\\StdClass</title>
<path fill="none" stroke="black" d="M402.144,-159.874C396.604,-157.102 391.092,-154.118 386,-151 351.193,-129.688 350.545,-112.172 314,-94 305.681,-89.8631 296.504,-86.449 287.35,-83.648"/>
<polygon fill="none" stroke="black" points="288.044,-80.2066 277.468,-80.844 286.133,-86.9408 288.044,-80.2066"/>
</g>
<!-- \\DB_Util -->
<g id="node7" class="node"><title>\\DB_Util</title>
<a xlink:href="classes.db_util.html" xlink:title="«abstract»&lt;br/&gt;DB_Util" target="_parent">
<polygon fill="none" stroke="black" points="271,-898 187,-898 187,-862 271,-862 271,-898"/>
<text text-anchor="start" x="195" y="-885.433" font-family="Courier,monospace" font-size="11.00">«abstract»</text>
<text text-anchor="start" x="205" y="-872.233" font-family="Courier,monospace" font-size="11.00">DB_Util</text>
</a>
</g>
<!-- \\PgSQL_SQL -->
<g id="node8" class="node"><title>\\PgSQL_SQL</title>
<a xlink:href="drivers.pgsql.pgsql_sql.html" xlink:title="PgSQL_SQL" target="_parent">
<polygon fill="none" stroke="black" points="483,-736 407,-736 407,-700 483,-700 483,-736"/>
<text text-anchor="middle" x="445" y="-714.6" font-family="Courier,monospace" font-size="11.00">PgSQL_SQL</text>
</a>
</g>
<!-- \\PgSQL_SQL&#45;&gt;\\DB_SQL -->
<g id="edge7" class="edge"><title>\\PgSQL_SQL&#45;&gt;\\DB_SQL</title>
<path fill="none" stroke="black" d="M406.475,-700.687C399.629,-697.52 392.584,-694.203 386,-691 346.965,-672.012 303.105,-649.262 271.686,-632.713"/>
<polygon fill="none" stroke="black" points="273.24,-629.575 262.762,-628.003 269.972,-635.766 273.24,-629.575"/>
</g>
<!-- \\PgSQL_Util -->
<g id="node9" class="node"><title>\\PgSQL_Util</title>
<a xlink:href="drivers.pgsql.pgsql_util.html" xlink:title="PgSQL_Util" target="_parent">
<polygon fill="none" stroke="black" points="487,-1006 403,-1006 403,-970 487,-970 487,-1006"/>
<text text-anchor="middle" x="445" y="-984.6" font-family="Courier,monospace" font-size="11.00">PgSQL_Util</text>
</a>
</g>
<!-- \\PgSQL_Util&#45;&gt;\\DB_Util -->
<g id="edge9" class="edge"><title>\\PgSQL_Util&#45;&gt;\\DB_Util</title>
<path fill="none" stroke="black" d="M404.892,-969.953C398.548,-967.01 392.078,-963.957 386,-961 346.965,-942.012 303.105,-919.262 271.686,-902.713"/>
<polygon fill="none" stroke="black" points="273.24,-899.575 262.762,-898.003 269.972,-905.766 273.24,-899.575"/>
</g>
<!-- \\PgSQL -->
<g id="node10" class="node"><title>\\PgSQL</title>
<a xlink:href="drivers.pgsql.pgsql_driver.html" xlink:title="PgSQL" target="_parent">
<polygon fill="none" stroke="black" points="472,-466 418,-466 418,-430 472,-430 472,-466"/>
<text text-anchor="middle" x="445" y="-444.6" font-family="Courier,monospace" font-size="11.00">PgSQL</text>
</a>
</g>
<!-- \\PgSQL&#45;&gt;\\DB_PDO -->
<g id="edge11" class="edge"><title>\\PgSQL&#45;&gt;\\DB_PDO</title>
<path fill="none" stroke="black" d="M417.852,-435.9C407.798,-431.333 396.332,-426.026 386,-421 346.965,-402.012 303.105,-379.262 271.686,-362.713"/>
<polygon fill="none" stroke="black" points="273.24,-359.575 262.762,-358.003 269.972,-365.766 273.24,-359.575"/>
</g>
<!-- \\ODBC_Util -->
<g id="node11" class="node"><title>\\ODBC_Util</title>
<a xlink:href="drivers.odbc.odbc_util.html" xlink:title="ODBC_Util" target="_parent">
<polygon fill="none" stroke="black" points="483,-952 407,-952 407,-916 483,-916 483,-952"/>
<text text-anchor="middle" x="445" y="-930.6" font-family="Courier,monospace" font-size="11.00">ODBC_Util</text>
</a>
</g>
<!-- \\ODBC_Util&#45;&gt;\\DB_Util -->
<g id="edge13" class="edge"><title>\\ODBC_Util&#45;&gt;\\DB_Util</title>
<path fill="none" stroke="black" d="M406.384,-924.346C371.629,-915.657 320.251,-902.813 281.723,-893.181"/>
<polygon fill="none" stroke="black" points="282.273,-889.711 271.723,-890.681 280.576,-896.502 282.273,-889.711"/>
</g>
<!-- \\ODBC_SQL -->
<g id="node12" class="node"><title>\\ODBC_SQL</title>
<a xlink:href="drivers.odbc.odbc_sql.html" xlink:title="ODBC_SQL" target="_parent">
<polygon fill="none" stroke="black" points="480,-682 410,-682 410,-646 480,-646 480,-682"/>
<text text-anchor="middle" x="445" y="-660.6" font-family="Courier,monospace" font-size="11.00">ODBC_SQL</text>
</a>
</g>
<!-- \\ODBC_SQL&#45;&gt;\\DB_SQL -->
<g id="edge15" class="edge"><title>\\ODBC_SQL&#45;&gt;\\DB_SQL</title>
<path fill="none" stroke="black" d="M409.815,-655.204C374.991,-646.498 321.26,-633.065 281.41,-623.103"/>
<polygon fill="none" stroke="black" points="282.148,-619.679 271.598,-620.65 280.451,-626.47 282.148,-619.679"/>
</g>
<!-- \\ODBC -->
<g id="node13" class="node"><title>\\ODBC</title>
<a xlink:href="drivers.odbc.odbc_driver.html" xlink:title="ODBC" target="_parent">
<polygon fill="none" stroke="black" points="472,-412 418,-412 418,-376 472,-376 472,-412"/>
<text text-anchor="middle" x="445" y="-390.6" font-family="Courier,monospace" font-size="11.00">ODBC</text>
</a>
</g>
<!-- \\ODBC&#45;&gt;\\DB_PDO -->
<g id="edge17" class="edge"><title>\\ODBC&#45;&gt;\\DB_PDO</title>
<path fill="none" stroke="black" d="M417.643,-387.161C383.521,-378.63 324.445,-363.861 281.476,-353.119"/>
<polygon fill="none" stroke="black" points="282.298,-349.717 271.747,-350.687 280.6,-356.508 282.298,-349.717"/>
</g>
<!-- \\MySQL_Util -->
<g id="node14" class="node"><title>\\MySQL_Util</title>
<a xlink:href="drivers.mysql.mysql_util.html" xlink:title="MySQL_Util" target="_parent">
<polygon fill="none" stroke="black" points="487,-898 403,-898 403,-862 487,-862 487,-898"/>
<text text-anchor="middle" x="445" y="-876.6" font-family="Courier,monospace" font-size="11.00">MySQL_Util</text>
</a>
</g>
<!-- \\MySQL_Util&#45;&gt;\\DB_Util -->
<g id="edge19" class="edge"><title>\\MySQL_Util&#45;&gt;\\DB_Util</title>
<path fill="none" stroke="black" d="M402.325,-880C367.712,-880 318.759,-880 281.701,-880"/>
<polygon fill="none" stroke="black" points="281.586,-876.5 271.586,-880 281.586,-883.5 281.586,-876.5"/>
</g>
<!-- \\MySQL -->
<g id="node15" class="node"><title>\\MySQL</title>
<a xlink:href="drivers.mysql.mysql_driver.html" xlink:title="MySQL" target="_parent">
<polygon fill="none" stroke="black" points="472,-358 418,-358 418,-322 472,-322 472,-358"/>
<text text-anchor="middle" x="445" y="-336.6" font-family="Courier,monospace" font-size="11.00">MySQL</text>
</a>
</g>
<!-- \\MySQL&#45;&gt;\\DB_PDO -->
<g id="edge21" class="edge"><title>\\MySQL&#45;&gt;\\DB_PDO</title>
<path fill="none" stroke="black" d="M417.643,-340C383.593,-340 324.693,-340 281.747,-340"/>
<polygon fill="none" stroke="black" points="281.747,-336.5 271.747,-340 281.747,-343.5 281.747,-336.5"/>
</g>
<!-- \\MySQL_SQL -->
<g id="node16" class="node"><title>\\MySQL_SQL</title>
<a xlink:href="drivers.mysql.mysql_sql.html" xlink:title="MySQL_SQL" target="_parent">
<polygon fill="none" stroke="black" points="484,-628 406,-628 406,-592 484,-592 484,-628"/>
<text text-anchor="middle" x="445" y="-606.6" font-family="Courier,monospace" font-size="11.00">MySQL_SQL</text>
</a>
</g>
<!-- \\MySQL_SQL&#45;&gt;\\DB_SQL -->
<g id="edge23" class="edge"><title>\\MySQL_SQL&#45;&gt;\\DB_SQL</title>
<path fill="none" stroke="black" d="M405.884,-610C371.213,-610 320.287,-610 281.97,-610"/>
<polygon fill="none" stroke="black" points="281.522,-606.5 271.522,-610 281.522,-613.5 281.522,-606.5"/>
</g>
<!-- \\SQLite_Util -->
<g id="node17" class="node"><title>\\SQLite_Util</title>
<a xlink:href="drivers.sqlite.sqlite_util.html" xlink:title="SQLite_Util" target="_parent">
<polygon fill="none" stroke="black" points="490,-844 400,-844 400,-808 490,-808 490,-844"/>
<text text-anchor="middle" x="445" y="-822.6" font-family="Courier,monospace" font-size="11.00">SQLite_Util</text>
</a>
</g>
<!-- \\SQLite_Util&#45;&gt;\\DB_Util -->
<g id="edge25" class="edge"><title>\\SQLite_Util&#45;&gt;\\DB_Util</title>
<path fill="none" stroke="black" d="M399.456,-837.386C364.949,-846.013 317.482,-857.879 281.4,-866.9"/>
<polygon fill="none" stroke="black" points="280.398,-863.543 271.545,-869.364 282.096,-870.334 280.398,-863.543"/>
</g>
<!-- \\SQLite -->
<g id="node18" class="node"><title>\\SQLite</title>
<a xlink:href="drivers.sqlite.sqlite_driver.html" xlink:title="SQLite" target="_parent">
<polygon fill="none" stroke="black" points="473,-304 417,-304 417,-268 473,-268 473,-304"/>
<text text-anchor="middle" x="445" y="-282.6" font-family="Courier,monospace" font-size="11.00">SQLite</text>
</a>
</g>
<!-- \\SQLite&#45;&gt;\\DB_PDO -->
<g id="edge27" class="edge"><title>\\SQLite&#45;&gt;\\DB_PDO</title>
<path fill="none" stroke="black" d="M416.317,-293.171C382.001,-301.75 323.875,-316.281 281.456,-326.886"/>
<polygon fill="none" stroke="black" points="280.429,-323.535 271.577,-329.356 282.127,-330.326 280.429,-323.535"/>
</g>
<!-- \\SQLite_SQL -->
<g id="node19" class="node"><title>\\SQLite_SQL</title>
<a xlink:href="drivers.sqlite.sqlite_sql.html" xlink:title="SQLite_SQL" target="_parent">
<polygon fill="none" stroke="black" points="487,-574 403,-574 403,-538 487,-538 487,-574"/>
<text text-anchor="middle" x="445" y="-552.6" font-family="Courier,monospace" font-size="11.00">SQLite_SQL</text>
</a>
</g>
<!-- \\SQLite_SQL&#45;&gt;\\DB_SQL -->
<g id="edge29" class="edge"><title>\\SQLite_SQL&#45;&gt;\\DB_SQL</title>
<path fill="none" stroke="black" d="M402.84,-566.54C368.276,-575.181 319.162,-587.46 281.95,-596.763"/>
<polygon fill="none" stroke="black" points="280.644,-593.481 271.792,-599.302 282.342,-600.272 280.644,-593.481"/>
</g>
<!-- \\Firebird_SQL -->
<g id="node20" class="node"><title>\\Firebird_SQL</title>
<a xlink:href="drivers.firebird.firebird_sql.html" xlink:title="Firebird_SQL" target="_parent">
<polygon fill="none" stroke="black" points="493,-520 397,-520 397,-484 493,-484 493,-520"/>
<text text-anchor="middle" x="445" y="-498.6" font-family="Courier,monospace" font-size="11.00">Firebird_SQL</text>
</a>
</g>
<!-- \\Firebird_SQL&#45;&gt;\\DB_SQL -->
<g id="edge31" class="edge"><title>\\Firebird_SQL&#45;&gt;\\DB_SQL</title>
<path fill="none" stroke="black" d="M404.892,-520.047C398.548,-522.99 392.078,-526.043 386,-529 346.965,-547.988 303.105,-570.738 271.686,-587.287"/>
<polygon fill="none" stroke="black" points="269.972,-584.234 262.762,-591.997 273.24,-590.425 269.972,-584.234"/>
</g>
<!-- \\Firebird_Result -->
<g id="node21" class="node"><title>\\Firebird_Result</title>
<a xlink:href="drivers.firebird.firebird_result.html" xlink:title="Firebird_Result" target="_parent">
<polygon fill="none" stroke="black" points="503,-142 387,-142 387,-106 503,-106 503,-142"/>
<text text-anchor="middle" x="445" y="-120.6" font-family="Courier,monospace" font-size="11.00">Firebird_Result</text>
</a>
</g>
<!-- \\PDOStatement -->
<g id="node42" class="node"><title>\\PDOStatement</title>
<ellipse fill="none" stroke="black" cx="229" cy="-18" rx="85.1942" ry="18"/>
<text text-anchor="middle" x="229" y="-13.4" font-family="Times Roman,serif" font-size="14.00" fill="gray">\PDOStatement</text>
</g>
<!-- \\Firebird_Result&#45;&gt;\\PDOStatement -->
<g id="edge33" class="edge"><title>\\Firebird_Result&#45;&gt;\\PDOStatement</title>
<path fill="none" stroke="black" d="M418.912,-105.741C393.168,-88.3429 352.227,-62.3064 314,-45 306.579,-41.6405 298.619,-38.5215 290.654,-35.686"/>
<polygon fill="none" stroke="black" points="291.567,-32.2991 280.972,-32.3709 289.299,-38.9217 291.567,-32.2991"/>
</g>
<!-- \\Firebird -->
<g id="node22" class="node"><title>\\Firebird</title>
<a xlink:href="drivers.firebird.firebird_driver.html" xlink:title="Firebird" target="_parent">
<polygon fill="none" stroke="black" points="480,-250 410,-250 410,-214 480,-214 480,-250"/>
<text text-anchor="middle" x="445" y="-228.6" font-family="Courier,monospace" font-size="11.00">Firebird</text>
</a>
</g>
<!-- \\Firebird&#45;&gt;\\DB_PDO -->
<g id="edge35" class="edge"><title>\\Firebird&#45;&gt;\\DB_PDO</title>
<path fill="none" stroke="black" d="M409.906,-246.262C401.844,-250.026 393.454,-254.349 386,-259 350.9,-280.9 350.888,-299.268 314,-318 304.01,-323.073 292.75,-327.046 281.773,-330.133"/>
<polygon fill="none" stroke="black" points="280.611,-326.819 271.815,-332.725 282.375,-333.593 280.611,-326.819"/>
</g>
<!-- \\Firebird_Util -->
<g id="node23" class="node"><title>\\Firebird_Util</title>
<a xlink:href="drivers.firebird.firebird_util.html" xlink:title="Firebird_Util" target="_parent">
<polygon fill="none" stroke="black" points="497,-790 393,-790 393,-754 497,-754 497,-790"/>
<text text-anchor="middle" x="445" y="-768.6" font-family="Courier,monospace" font-size="11.00">Firebird_Util</text>
</a>
</g>
<!-- \\Firebird_Util&#45;&gt;\\DB_Util -->
<g id="edge37" class="edge"><title>\\Firebird_Util&#45;&gt;\\DB_Util</title>
<path fill="none" stroke="black" d="M404.892,-790.047C398.548,-792.99 392.078,-796.043 386,-799 346.965,-817.988 303.105,-840.738 271.686,-857.287"/>
<polygon fill="none" stroke="black" points="269.972,-854.234 262.762,-861.997 273.24,-860.425 269.972,-854.234"/>
</g>
</g>
</svg>
